<svg width="312" height="319" viewBox="0 0 312 319" fill="none" xmlns="http://www.w3.org/2000/svg">
<path d="M89.6392 149.215C88.0359 151.016 86.5809 152.692 85.2742 154.242C83.9675 155.792 82.6431 157.392 81.3009 159.043C74.7241 166.89 68.5267 175.001 62.7089 183.375C57.0505 191.414 52.0448 199.892 47.7398 208.729L47.2165 209.874C44.9323 215.072 42.9054 220.339 41.136 225.675C39.3018 231.301 38.3831 237.185 38.4149 243.102L38.4335 242.7C38.0989 247.038 39.1494 251.149 41.2639 254.616L41.2726 254.631C43.4048 257.747 46.6104 260.184 50.5391 261.3C52.51 262.059 54.6019 262.5 56.7115 262.598L56.5863 262.59L62.552 262.852C68.2765 262.732 73.4304 261.938 78.3971 260.558L78.0706 260.636C83.018 259.282 87.97 257.703 92.9268 255.902C94.0275 255.555 95.1717 255.365 96.3256 255.337L96.427 255.338C97.656 255.33 98.8556 255.714 99.8518 256.434L99.8193 256.413C100.767 257.037 101.535 257.898 102.048 258.91C102.561 259.922 102.8 261.051 102.743 262.183L102.745 262.222C102.747 263.327 102.41 264.405 101.78 265.312C101.15 266.219 100.257 266.911 99.2208 267.296L99.2058 267.305C91.8852 270.292 83.8623 272.812 75.6269 274.651L74.7172 274.815C66.7339 276.569 57.8792 276.537 49.067 274.303L49.0314 274.294C42.4246 272.944 36.4854 269.358 32.2176 264.139L32.2849 264.221C28.1858 259.014 25.8068 252.663 25.477 246.048L25.4748 245.818C24.9661 240.346 25.3144 234.829 26.5073 229.466L26.5359 229.359C27.7415 223.917 29.4081 218.588 31.5176 213.428L31.3428 213.89C37.8103 197.786 45.7779 183.686 55.2362 170.914L54.4594 172.055C64.3163 158.511 75.0293 145.611 86.5329 133.433L84.9577 135.225C85.8163 134.324 86.4525 133.236 86.8155 132.046C87.1182 130.841 87.2187 129.582 87.1068 128.345L87.1114 128.423C86.6295 122.712 86.2516 117.026 85.9777 111.362L85.1647 94.3882C85.2475 93.984 85.2479 93.5672 85.1659 93.1627C85.084 92.7582 84.9213 92.3743 84.6877 92.0339C84.0422 91.4847 83.2111 91.2028 82.3646 91.246L82.3916 91.2405C74.8549 91.0108 67.3483 91.0648 59.8719 91.4026C52.2372 91.7425 44.6612 92.8988 37.2737 94.8516L37.8427 94.7241C34.9527 95.521 32.1249 96.5281 29.382 97.7372L29.5112 97.6828C26.7875 98.8979 24.1289 100.254 21.5462 101.745C17.9032 103.77 15.12 107.048 13.7133 110.969L13.5765 111.48C12.4791 115.575 12.8815 119.729 14.4626 123.334L14.4484 123.292C15.7591 127.366 17.6533 131.038 20.1311 134.306L20.1983 134.387C22.6846 137.624 25.3162 140.729 28.0932 143.704C29.1772 144.665 30.1582 145.598 31.0363 146.503L33.6585 149.216C34.9186 150.485 35.6924 152.156 35.8446 153.937L35.8437 153.987C35.9057 154.806 35.7846 155.628 35.4891 156.394C35.1935 157.16 34.7311 157.85 34.1352 158.415L34.1534 158.395C33.5977 159.062 32.9012 159.599 32.1137 159.966C31.3263 160.334 30.4672 160.523 29.598 160.52L29.5592 160.522C27.7433 160.48 26.0066 159.77 24.6814 158.528L24.7107 158.562C20.4599 154.918 16.5409 150.904 12.9995 146.568L13.2219 146.832C9.71878 142.602 6.69908 137.995 4.21893 133.096L4.17861 133.008C2.7105 129.952 1.58898 126.741 0.834944 123.435L0.779745 123.166C0.0789761 119.932 -0.151272 116.613 0.0961024 113.313L0.114532 113.102C0.545525 108.919 1.92572 104.889 4.15012 101.32L4.0517 101.497C6.28881 97.9526 9.13433 94.8301 12.4575 92.2735L12.3758 92.3407C15.8397 89.647 19.5157 87.4766 23.4038 85.8296L23.533 85.7752C27.2893 84.1607 31.3686 82.8618 35.5662 81.9763L35.9672 81.9056C43.1465 80.1992 50.4592 79.1109 57.8251 78.6527L58.8132 78.6248C66.3827 78.1932 74.0575 78.1291 81.8376 78.4326C82.3573 78.3937 82.9402 78.3887 83.5862 78.4176L83.6844 78.4312C84.4117 78.4734 85.0265 78.46 85.6359 78.4197L85.5194 78.4267C85.6021 76.4386 85.7562 74.4696 85.9815 72.5198C86.2068 70.5699 86.448 68.6243 86.705 66.6829C87.5032 58.7275 88.7863 50.8283 90.547 43.0294L90.6465 42.6108C92.4652 34.5368 95.548 26.8009 99.7811 19.6884L99.5072 20.1876C101.091 16.9859 102.864 14.2674 104.889 11.7946L104.712 12.0271C106.78 9.47082 109.205 7.22409 111.912 5.35546L111.863 5.3934C116.665 1.96814 122.397 0.0867472 128.297 -5.24255e-05L128.512 0.00658291C134.568 0.164282 140.491 1.82988 145.742 4.8524L145.508 4.7262C151.108 7.75888 156.192 11.6591 160.571 16.2817L160.36 16.0724C165.133 21.1175 169.068 25.8233 172.722 30.7211L172.456 30.3827C173.348 31.8051 173.707 33.5552 173.368 35.2964L173.362 35.3202L173.272 35.7032C173.072 36.4537 172.72 37.1549 172.237 37.7633C171.754 38.3716 171.151 38.8739 170.465 39.2389C169.18 40.1855 167.577 40.5954 165.995 40.3821L165.959 40.3725C164.282 40.1365 162.767 39.2455 161.746 37.8949L161.754 37.91C159.699 35.5695 157.745 33.2605 155.893 30.9831C154.132 28.7943 152.264 26.693 150.296 24.6867L149.961 24.368C147.779 22.0464 145.351 19.967 142.722 18.1659L142.439 17.9882C139.633 16.1184 136.54 14.7221 133.282 13.8553L132.985 13.7757L132.83 13.7343C130.228 13.0371 127.597 13.0191 125.136 13.5555L125.229 13.5422C122.677 14.1289 120.328 15.3833 118.422 17.1767L118.371 17.2265C115.644 19.2623 113.37 21.8417 111.693 24.8014L111.613 24.9581C109.953 27.845 108.491 30.8411 107.236 33.9257L107.096 34.3079C104.321 41.3404 102.319 48.6534 101.124 56.1184L101.203 55.6815C99.8463 64.0715 99.0831 71.5772 98.7232 79.0511L98.8387 77.6697L98.81 77.7766C98.7445 78.0259 98.736 78.2868 98.7849 78.54C98.8339 78.7932 98.9392 79.0321 99.093 79.2392C99.4222 79.6582 99.8709 79.9481 100.439 80.1088L100.534 80.1343C106.539 81.0733 112.432 82.0372 118.211 83.0261C123.991 84.0149 129.749 85.053 135.485 86.1405C136.636 86.268 137.799 86.2326 138.939 86.0354L138.861 86.04C139.974 85.7474 141.016 85.235 141.927 84.533L141.945 84.5125C151.73 77.128 161.891 70.2529 172.385 63.9147L172.262 63.996C182.535 57.8265 193.293 52.5011 204.429 48.0724L205.096 47.8185C211.079 45.355 217.197 43.2307 223.419 41.4555L224.306 41.2351C230.708 39.4334 237.311 38.4371 243.961 38.2696L244.557 38.2767C248.754 38.0787 252.96 38.4189 257.071 39.2888L257.19 39.3207C261.525 40.2706 265.626 42.0789 269.251 44.6389L269.044 44.5072C273.44 47.301 276.736 51.1612 278.777 55.6142L278.8 55.6712C280.716 60.1161 281.813 65.0539 281.904 70.1295L281.894 70.4066C282.21 75.5934 281.656 81.3229 280.132 87.009L280.094 87.1515C278.601 92.7228 276.799 98.118 274.687 103.337L274.919 102.712C274.322 104.113 273.74 105.446 273.172 106.71C272.472 108.278 271.764 109.59 270.991 110.858L271.117 110.625C270.83 111.384 270.379 112.07 269.796 112.635C269.213 113.2 268.513 113.63 267.745 113.895L267.718 113.9C266.138 114.467 264.399 114.402 262.864 113.719L262.9 113.729C262.131 113.444 261.428 113.009 260.83 112.449C260.232 111.889 259.752 111.215 259.418 110.468L259.41 110.452C259.053 109.656 258.871 108.793 258.874 107.921C258.877 107.049 259.066 106.187 259.428 105.394L259.418 105.429C260.295 102.984 261.291 100.515 262.409 98.024C263.418 95.8261 264.353 93.2394 265.09 90.536C266.137 87.4484 266.978 84.2946 267.607 81.0955L267.562 81.3124C268.213 77.9977 268.635 74.642 268.826 71.2692L268.782 71.7663C269.122 69.1109 268.879 66.4132 268.069 63.8607C267.26 61.3083 265.904 58.9623 264.096 56.986L264.037 56.9194C259.813 53.1229 254.278 51.1151 248.601 51.32L248.765 51.3258C243.709 51.0616 238.641 51.4482 233.685 52.4761L234.047 52.4078C229.315 53.3706 224.531 54.5442 219.694 55.9286C210.108 59.181 200.807 63.2165 191.884 67.9942L191.989 67.9334C183.112 72.7052 174.461 77.8725 166.034 83.4351C164.448 84.3501 162.834 85.3681 161.192 86.4889C159.55 87.6097 158.039 88.6552 156.658 89.6255L156.646 89.673C156.609 89.8273 156.514 89.9613 156.38 90.047C156.176 90.2449 156.048 90.5071 156.016 90.7891L159.464 91.7005C177.178 96.6887 194.084 102.555 210.436 109.302L208.289 108.473C226.274 115.874 241.929 123.937 256.697 133.123L254.643 131.95C263.019 136.904 269.745 141.505 276.173 146.459L274.976 145.604C282.397 151.27 288.485 156.781 294.082 162.696L293.518 162.138C296.697 165.674 299.35 169.032 301.798 172.538L301.679 172.366C304.22 175.998 306.332 179.758 308.108 183.682L308.171 183.826C311.361 190.648 312.26 198.65 310.142 206.556L309.847 207.609L309.86 207.561C307.136 215.228 301.608 221.579 294.387 225.338L294.357 225.355C289.278 228.29 283.825 230.527 278.147 232.004L277.793 232.088C272.19 233.522 266.482 234.515 260.723 235.058L259.884 235.101C258.304 235.136 256.765 234.597 255.553 233.584L255.585 233.606C254.944 233.092 254.417 232.451 254.037 231.723C253.658 230.995 253.435 230.196 253.382 229.376L253.38 229.338C253.252 228.532 253.295 227.709 253.509 226.922C253.722 226.134 254.099 225.401 254.616 224.771L254.595 224.803C255.66 223.4 257.215 222.449 258.95 222.14L258.989 222.138C261.827 221.558 264.703 221.044 267.616 220.595C270.533 220.151 273.41 219.475 276.219 218.574L275.97 218.647C278.521 217.918 280.77 217.083 282.946 216.089L282.847 216.126C285.012 215.145 287.169 214.048 289.32 212.834C293.041 210.778 296.039 207.433 297.586 203.229L297.63 203.063C298.788 198.742 298.333 194.358 296.623 190.566L296.638 190.608C295.354 187.162 293.62 183.9 291.482 180.906L291.427 180.828C289.318 177.872 286.994 175.077 284.474 172.463L284.192 172.184C278.259 165.64 271.675 159.715 264.544 154.501L263.744 153.969C256.907 148.937 249.801 144.281 242.458 140.021L240.731 139.1C232.371 134.401 223.884 130.006 215.267 125.916C206.919 121.902 198.34 118.389 189.575 115.393L188.815 115.138C181.624 112.762 174.363 110.443 167.031 108.182C159.7 105.92 152.415 103.688 145.178 101.486L145.059 101.454C144.118 101.208 143.141 101.123 142.172 101.202L142.238 101.195C141.337 101.274 140.503 101.704 139.917 102.392L139.899 102.413L121.243 118.763C115.075 124.261 109.01 129.786 103.048 135.339C102.482 135.691 102.046 136.217 101.806 136.839L101.803 136.85C101.494 137.508 101.357 138.233 101.404 138.957L101.401 138.919C102.866 148.472 104.517 157.96 106.356 167.384C108.194 176.809 110.434 186.175 113.076 195.484C115.718 204.793 118.682 213.963 121.967 222.994C125.252 232.026 128.967 240.893 133.113 249.595C136.785 257.182 140.654 264.224 144.858 271.063L144.939 271.187C149.061 277.902 153.875 284.269 159.294 290.136L159.705 290.551C162.021 293.22 164.787 295.87 167.791 298.252L168.142 298.512C170.942 300.751 174.387 302.628 178.191 303.876L178.274 303.899C181.429 305.045 184.85 305.245 188.116 304.475L188.02 304.5C191.152 303.647 193.936 302.001 196.125 299.725L196.195 299.654C198.413 297.602 200.419 295.061 201.997 292.214L202.098 292.025C203.63 289.218 205.003 286.328 206.213 283.369L206.375 282.954C209.997 272.872 212.322 262.371 213.297 251.703L213.21 252.456C214.191 242.108 214.742 231.704 214.862 221.243C214.62 210.457 213.905 199.769 212.719 189.179C211.532 178.59 210.007 168.011 208.144 157.443C207.895 156.614 207.757 155.756 207.733 154.89L207.728 154.813C207.611 153.976 207.785 153.124 208.222 152.4L208.235 152.353C208.623 150.905 209.567 149.758 210.789 149.093C212.059 148.339 213.544 148.03 215.01 148.214L215.046 148.224C216.402 148.36 217.675 148.943 218.664 149.88L218.632 149.859C219.733 150.857 220.436 152.221 220.609 153.697L220.611 153.735C221.176 157.458 221.833 161.264 222.582 165.154C223.331 169.045 223.964 172.938 224.482 176.834C226.014 188.637 227.076 200.533 227.666 212.524C228.308 222.722 228.092 234.84 226.938 247.037L226.759 248.465C226.059 255.593 224.717 264.165 222.901 272.75L222.759 273.374C220.936 281.831 217.916 289.984 213.788 297.587L214.066 297.025C213.198 298.583 212.21 300.18 211.101 301.816C209.946 303.512 208.687 305.133 207.33 306.671L207.518 306.442C203.017 312.17 196.821 316.044 189.957 317.564L189.769 317.602C185.479 318.451 180.728 318.361 176.023 317.1C173.395 316.387 170.951 315.385 168.691 314.092L168.881 314.194C162.934 311.201 157.944 307.485 153.702 303.116L153.914 303.326C149.481 298.78 145.347 293.954 141.536 288.876L141.773 289.182C134.937 280.075 128.96 270.355 123.918 260.147L123.794 259.898C118.724 249.607 114.157 239.117 110.094 228.427C105.741 216.882 102.013 205.112 98.9248 193.168L98.483 191.205C95.2611 178.611 92.607 165.783 90.5207 152.721L90.225 151.306L89.6392 149.215ZM98.1357 92.5074L99.0831 120.243C103.552 116.08 107.914 112.109 112.17 108.329C116.426 104.55 120.862 100.713 125.48 96.8189L98.1357 92.5074ZM151.558 177.193L151.344 177.136C146.354 175.799 142.371 172.556 139.996 168.396C138.762 166.442 137.946 164.253 137.6 161.968C137.255 159.684 137.387 157.352 137.988 155.122L138.276 154.143L138.336 153.917C139.656 148.991 142.89 145.099 147.021 142.796C149.101 141.55 151.411 140.734 153.814 140.399C156.216 140.063 158.662 140.214 161.005 140.843L161.29 140.919L161.492 140.973C166.482 142.311 170.465 145.553 172.84 149.714C175.371 153.764 176.275 158.803 174.942 163.777L174.878 164.014L174.821 164.228C173.492 169.19 170.189 173.101 165.984 175.346L165.969 175.355C163.849 176.601 161.501 177.41 159.063 177.736C156.624 178.062 154.145 177.897 151.772 177.251L151.593 177.203L151.605 177.206L151.558 177.193Z" fill="url(#paint0_linear_499_13077)" fill-opacity="0.26"/>
<defs>
<linearGradient id="paint0_linear_499_13077" x1="285.835" y1="267.509" x2="334.753" y2="25.0908" gradientUnits="userSpaceOnUse">
<stop stop-color="white"/>
<stop offset="1" stop-color="#565656"/>
</linearGradient>
</defs>
</svg>
