<svg width="283" height="274" viewBox="0 0 283 274" fill="none" xmlns="http://www.w3.org/2000/svg">
<path d="M96.6985 98.3773C94.6547 98.9957 92.7811 99.5878 91.0775 100.154C89.374 100.719 87.6337 101.315 85.8568 101.94C77.2606 104.824 68.8294 108.081 60.5632 111.713C52.5723 115.165 44.8709 119.251 37.5326 123.932L36.6079 124.555C32.4787 127.423 28.5119 130.463 24.7075 133.673C20.7203 137.073 17.305 141.09 14.5918 145.573L14.7919 145.278C12.5326 148.399 11.4242 151.989 11.4168 155.585L11.4163 155.6C11.5849 158.939 12.8783 162.262 15.3284 164.922C16.4654 166.407 17.8413 167.707 19.3886 168.757L19.2978 168.693L23.6809 171.651C28.0588 174.208 32.3179 175.992 36.7061 177.248L36.4235 177.156C40.7857 178.422 45.2549 179.521 49.831 180.453C50.8225 180.7 51.7744 181.086 52.6587 181.598L52.7344 181.647C53.666 182.209 54.3943 183.054 54.8135 184.058L54.7989 184.027C55.2257 184.937 55.4076 185.943 55.3265 186.944C55.2455 187.945 54.9044 188.908 54.3369 189.737L54.3208 189.767C53.811 190.602 53.0579 191.26 52.1626 191.653C51.2673 192.047 50.2728 192.156 49.3127 191.968L49.2973 191.967C42.3878 190.837 35.1645 189.028 28.0954 186.608L27.333 186.31C20.4937 183.942 13.8224 179.822 8.20203 174.059L8.17953 174.036C3.81512 169.961 0.989869 164.505 0.18117 158.591L0.194196 158.684C-0.492187 152.856 0.64911 146.96 3.46025 141.812L3.56482 141.638C5.71172 137.271 8.52678 133.267 11.9086 129.769L11.9796 129.701C15.4071 126.15 19.1307 122.897 23.11 119.977L22.7643 120.245C35.0972 111.076 47.6354 104.116 60.6848 98.8476L59.5707 99.3494C73.2781 93.6827 87.3342 88.8978 101.653 85.024L99.6351 85.6482C100.7 85.3654 101.684 84.8377 102.508 84.1071C103.294 83.3375 103.952 82.4335 104.44 81.4476L104.408 81.5083C106.685 76.9737 109.031 72.505 111.443 68.1024L118.681 54.9097C118.931 54.6428 119.124 54.3282 119.249 53.9849C119.374 53.6416 119.429 53.2765 119.41 52.9114C119.177 52.1981 118.68 51.6009 118.02 51.2419L118.043 51.2502C112.459 47.5906 106.766 44.159 100.965 40.9557C95.0427 37.6808 88.7875 35.0494 82.3062 33.1067L82.7948 33.2737C80.244 32.5385 77.643 31.9908 75.0127 31.635L75.1354 31.6537C72.5167 31.3113 69.8822 31.1053 67.2424 31.0364C63.5548 30.8805 59.9371 32.068 57.0609 34.3784L56.7215 34.7005C53.9985 37.2852 52.381 40.6077 51.9075 44.0606L51.9161 44.0224C51.0209 47.7054 50.7529 51.3538 51.1122 54.9674L51.1252 55.0601C51.5055 58.6538 52.056 62.216 52.7767 65.7468C53.1508 66.9734 53.46 68.1317 53.7042 69.2214L54.4293 72.4828C54.7937 74.0238 54.605 75.6434 53.8962 77.0585L53.8721 77.0964C53.5403 77.7432 53.0685 78.3079 52.4911 78.7494C51.9137 79.191 51.2451 79.4984 50.5339 79.6494L50.5572 79.6423C49.8287 79.8893 49.0546 79.9724 48.29 79.8855C47.5255 79.7987 46.7894 79.5441 46.1343 79.14L46.1039 79.1238C44.7524 78.2519 43.7695 76.9124 43.3433 75.3618L43.35 75.4005C41.8261 70.6827 40.7234 65.8395 40.055 60.9276L40.1012 61.2292C39.4127 56.415 39.2638 51.5395 39.6572 46.6932L39.6671 46.6088C39.9725 43.6217 40.611 40.6784 41.5707 37.8338L41.6535 37.605C42.6206 34.8385 43.9817 32.2264 45.6949 29.8493L45.8066 29.6982C48.067 26.739 50.9731 24.335 54.3036 22.669L54.1473 22.7572C57.4762 21.1155 61.0691 20.074 64.7609 19.6809L64.6682 19.6938C68.5297 19.2622 72.3092 19.3238 76.0068 19.8788L76.1296 19.8974C79.7126 20.4159 83.3935 21.3221 86.9726 22.5952L87.3081 22.7273C93.5183 24.7597 99.5433 27.3207 105.317 30.3819L106.076 30.8179C111.991 33.9935 117.816 37.4952 123.55 41.3232C123.96 41.5343 124.402 41.8001 124.877 42.1207L124.945 42.1764C125.474 42.5447 125.945 42.819 126.423 43.0704L126.332 43.0218C127.314 41.559 128.342 40.1435 129.414 38.7755C130.486 37.4074 131.568 36.0499 132.66 34.7029C136.943 29.0653 141.565 23.6945 146.502 18.6203L146.771 18.3502C151.879 13.0952 157.785 8.68002 164.271 5.26776L163.834 5.51801C166.51 3.8331 169.106 2.60041 171.779 1.67011L171.538 1.76384C174.283 0.790481 177.153 0.215593 180.061 0.0567168L180.007 0.0629846C185.216 -0.302413 190.415 0.928699 194.91 3.59226L195.069 3.69659C199.569 6.61735 203.27 10.6145 205.837 15.3256L205.719 15.1223C208.545 20.0026 210.579 25.2992 211.747 30.8151L211.685 30.5593C212.955 36.5767 213.749 41.95 214.243 47.3384L214.199 46.9598C214.215 48.4466 213.676 49.934 212.614 51.0918L212.598 51.1068L212.353 51.3545C211.856 51.8288 211.265 52.1953 210.619 52.4313C209.973 52.6672 209.285 52.7675 208.599 52.7259C207.191 52.8462 205.791 52.4142 204.694 51.5211L204.672 51.4974C203.515 50.5434 202.783 49.1697 202.637 47.6777L202.636 47.6931C202.167 44.975 201.76 42.3279 201.415 39.7517C201.097 37.2842 200.659 34.8335 200.101 32.4086L199.996 32.0131C199.422 29.2504 198.551 26.5575 197.399 23.9813L197.267 23.716C196.014 21.0067 194.324 18.5215 192.265 16.3598L192.077 16.1623L191.98 16.0596C190.338 14.3296 188.359 13.0989 186.253 12.3654L186.329 12.3982C184.131 11.6609 181.777 11.5215 179.508 11.9941L179.447 12.0079C176.446 12.2837 173.536 13.1795 170.9 14.6385L170.767 14.7197C168.179 16.1317 165.689 17.7175 163.315 19.4663L163.032 19.6898C157.684 23.7164 152.789 28.312 148.434 33.3959L148.696 33.1025C143.79 38.8099 139.742 44.1242 136.013 49.6009L136.739 48.6113L136.668 48.6788C136.504 48.8368 136.376 49.0298 136.296 49.2436C136.216 49.4574 136.185 49.6866 136.205 49.9141C136.26 50.3827 136.465 50.8091 136.82 51.1933L136.88 51.2565C140.98 54.7434 144.983 58.1969 148.889 61.617C152.796 65.0371 156.663 68.4844 160.492 71.9589C161.301 72.5874 162.196 73.0985 163.148 73.4771L163.087 73.4447C164.062 73.7383 165.086 73.8335 166.099 73.7247L166.122 73.7177C176.927 72.6683 187.778 72.1771 198.634 72.2458L198.503 72.2501C209.114 72.3437 219.7 73.299 230.158 75.1066L230.779 75.2232C236.436 76.1307 242.038 77.3565 247.557 78.8945L248.329 79.1383C253.996 80.7393 259.442 83.0412 264.541 85.9907L264.988 86.272C268.249 88.0641 271.267 90.2663 273.969 92.8249L274.044 92.9039C276.878 95.6264 279.138 98.8888 280.69 102.498L280.595 102.303C282.622 106.446 283.325 110.885 282.806 115.192L282.797 115.246C282.188 119.488 280.732 123.724 278.453 127.599L278.317 127.803C276.157 131.866 273.088 135.935 269.307 139.524L269.213 139.614C265.508 143.13 261.652 146.37 257.643 149.334L258.107 148.969C257.009 149.751 255.953 150.488 254.939 151.18C253.685 152.04 252.544 152.703 251.373 153.303L251.576 153.185C251.008 153.626 250.35 153.935 249.649 154.092C248.947 154.249 248.22 154.25 247.518 154.094L247.495 154.086C246.039 153.783 244.756 152.93 243.913 151.704L243.936 151.728C243.487 151.157 243.157 150.503 242.965 149.804C242.773 149.105 242.722 148.374 242.816 147.655L242.816 147.64C242.916 146.873 243.177 146.137 243.583 145.48C243.989 144.823 244.53 144.26 245.17 143.828L245.147 143.851C246.939 142.409 248.834 141.007 250.83 139.643C252.608 138.45 254.511 136.929 256.318 135.229C258.537 133.382 260.63 131.389 262.585 129.265L262.451 129.408C264.476 127.206 266.347 124.868 268.051 122.41L267.788 122.765C269.273 120.917 270.337 118.767 270.907 116.466C271.476 114.164 271.538 111.765 271.087 109.437L271.073 109.359C269.64 104.539 266.389 100.462 262.008 97.9911L262.129 98.0713C258.434 95.5333 254.428 93.4807 250.21 91.9643L250.516 92.0802C246.497 90.6183 242.342 89.2914 238.05 88.0995C229.307 86.121 220.417 84.8654 211.47 84.3455L211.578 84.3484C202.668 83.8453 193.745 83.7449 184.809 84.0471C183.188 84.0042 181.499 84.0262 179.741 84.113C177.982 84.1999 176.358 84.2904 174.867 84.3843L174.835 84.4143C174.736 84.5138 174.602 84.5709 174.461 84.5738C174.216 84.629 173.998 84.7675 173.843 84.9656L176.025 87.249C187.093 99.2095 197.145 111.459 206.37 124.117L205.133 122.498C215.288 136.406 223.379 149.735 230.281 163.503L229.273 161.666C233.306 169.282 236.256 175.867 238.818 182.581L238.309 181.382C241.292 189.092 243.339 196.07 244.83 203.125L244.662 202.443C245.426 206.583 245.877 210.346 246.104 214.125L246.093 213.94C246.331 217.859 246.187 221.674 245.713 225.459L245.694 225.597C244.947 232.223 241.924 238.681 236.668 243.671L235.958 244.329L235.989 244.3C230.386 248.829 223.275 251.067 216.084 250.564L216.053 250.563C210.86 250.431 205.709 249.597 200.738 248.086L200.432 247.986C195.538 246.477 190.769 244.586 186.169 242.332L185.516 241.976C184.307 241.272 183.394 240.153 182.947 238.828L182.962 238.859C182.715 238.175 182.613 237.447 182.664 236.721C182.714 235.996 182.915 235.289 183.255 234.646L183.271 234.616C183.547 233.949 183.961 233.347 184.486 232.851C185.011 232.356 185.635 231.977 186.317 231.74L186.286 231.754C187.739 231.187 189.353 231.189 190.806 231.758L190.837 231.775C193.248 232.65 195.657 233.592 198.065 234.6C200.472 235.614 202.957 236.435 205.495 237.053L205.273 236.993C207.536 237.623 209.62 238.033 211.724 238.289L211.632 238.271C213.72 238.532 215.856 238.701 218.041 238.78C221.803 238.949 225.613 237.81 228.726 235.351L228.836 235.246C231.709 232.519 233.393 228.998 233.857 225.345L233.848 225.383C234.473 222.187 234.673 218.922 234.443 215.672L234.438 215.587C234.213 212.381 233.751 209.195 233.057 206.055L232.973 205.714C231.52 198.029 229.29 190.51 226.317 183.274L225.959 182.502C223.125 175.54 219.914 168.738 216.339 162.124L215.461 160.63C211.323 153.215 206.947 145.97 202.333 138.896C197.886 132.005 193.034 125.383 187.801 119.066L187.346 118.523C183.015 113.402 178.605 108.293 174.115 103.194C169.625 98.0945 165.157 93.0397 160.711 88.0292L160.636 87.9502C160.04 87.3288 159.342 86.813 158.573 86.4246L158.626 86.4491C157.91 86.0922 157.081 86.0315 156.321 86.2802L156.297 86.2873L134.647 90.003C127.447 91.3011 120.312 92.6676 113.242 94.1026C112.652 94.1066 112.079 94.3023 111.61 94.6601L111.602 94.6676C111.065 95.021 110.626 95.5048 110.326 96.0738L110.343 96.0435C107.029 103.934 103.887 111.862 100.916 119.829C97.9446 127.795 95.3035 135.904 92.9924 144.154C90.6813 152.405 88.6771 160.7 86.9798 169.039C85.2825 177.378 83.9863 185.791 83.0912 194.28C82.3542 201.707 82.0181 208.814 82.0286 215.923L82.0329 216.054C82.039 223.031 82.7291 230.065 84.107 237.002L84.225 237.505C84.7389 240.592 85.6021 243.872 86.768 247.06L86.9129 247.418C87.9915 250.404 89.7241 253.415 92.0191 256.117L92.0716 256.173C93.9234 258.498 96.4138 260.231 99.2365 261.16L99.1525 261.135C101.912 261.94 104.775 261.985 107.481 261.279L107.566 261.258C110.19 260.734 112.88 259.743 115.389 258.323L115.553 258.227C118.008 256.817 120.382 255.27 122.664 253.595L122.978 253.357C130.376 247.42 136.99 240.567 142.66 232.962L142.246 233.49C147.774 226.131 153.002 218.53 157.932 210.687C162.738 202.431 167.143 194.03 171.145 185.485C175.148 176.941 178.89 168.248 182.371 159.407C182.567 158.665 182.859 157.953 183.241 157.289L183.274 157.228C183.573 156.542 184.098 155.98 184.762 155.635L184.794 155.605C185.757 154.691 187 154.262 188.231 154.325C189.538 154.343 190.803 154.797 191.825 155.614L191.847 155.638C192.808 156.368 193.5 157.397 193.813 158.563L193.798 158.531C194.168 159.795 194.068 161.149 193.516 162.344L193.5 162.374C192.204 165.446 190.94 168.624 189.705 171.907C188.471 175.191 187.149 178.424 185.738 181.606C181.435 191.226 176.734 200.699 171.633 210.026C167.401 218.023 161.632 227.073 155.118 235.749L154.323 236.745C150.497 241.803 145.518 247.655 140.176 253.297L139.78 253.702C134.492 259.244 128.44 264.003 121.806 267.835L122.276 267.539C120.901 268.314 119.416 269.062 117.821 269.785C116.165 270.531 114.464 271.173 112.728 271.706L112.977 271.621C106.928 273.863 100.458 273.923 94.5721 271.895L94.4119 271.837C90.7807 270.493 87.2347 268.228 84.2652 265.099C82.6108 263.346 81.2294 261.458 80.1209 259.437L80.2168 259.601C77.1108 254.59 75.0624 249.476 73.8803 244.216L73.943 244.472C72.6988 238.989 71.8097 233.433 71.2811 227.836L71.3186 228.176C70.37 218.138 70.353 208.034 71.2676 197.994L71.2893 197.748C72.2209 187.633 73.6253 177.6 75.5026 167.649C77.5561 156.918 80.1853 146.307 83.3785 135.86L83.9531 134.173C87.3459 123.173 91.2757 112.26 95.7423 101.432L96.1736 100.227L96.6985 98.3773ZM129.345 59.4895L117.231 80.8701C122.531 79.7938 127.662 78.8131 132.623 77.928C137.585 77.043 142.709 76.1982 147.997 75.3937L129.345 59.4895ZM130.509 148.144L130.374 148.002C127.225 144.684 125.717 140.393 125.849 136.153C125.821 134.107 126.217 132.077 127.013 130.192C127.809 128.307 128.987 126.608 130.473 125.202L131.143 124.596L131.293 124.453C134.568 121.344 138.81 119.901 142.995 120.074C145.142 120.095 147.263 120.548 149.232 121.406C151.202 122.264 152.978 123.509 154.457 125.067L154.637 125.257L154.764 125.391C157.914 128.709 159.421 133 159.289 137.24C159.327 141.469 157.679 145.691 154.372 148.83L154.214 148.98L154.072 149.115C150.773 152.247 146.47 153.673 142.256 153.423L142.241 153.422C140.064 153.382 137.916 152.907 135.925 152.025C133.933 151.143 132.138 149.872 130.644 148.286L130.531 148.168L130.539 148.176L130.509 148.144Z" fill="url(#paint0_linear_499_13078)" fill-opacity="0.26"/>
<defs>
<linearGradient id="paint0_linear_499_13078" x1="190.119" y1="278.45" x2="339.191" y2="118.038" gradientUnits="userSpaceOnUse">
<stop stop-color="white"/>
<stop offset="1" stop-color="#565656"/>
</linearGradient>
</defs>
</svg>
