<svg width="208" height="213" viewBox="0 0 208 213" fill="none" xmlns="http://www.w3.org/2000/svg">
<path d="M59.8086 99.5589C58.7389 100.761 57.7681 101.879 56.8963 102.913C56.0244 103.947 55.1407 105.015 54.2452 106.116C49.857 111.352 45.722 116.764 41.8403 122.351C38.0649 127.714 34.7251 133.371 31.8526 139.267L31.5035 140.031C29.9794 143.5 28.6271 147.014 27.4465 150.574C26.2227 154.328 25.6097 158.254 25.631 162.202L25.6434 161.933C25.4201 164.828 26.121 167.571 27.5318 169.884L27.5376 169.894C28.9603 171.973 31.0991 173.599 33.7204 174.344C35.0354 174.85 36.4312 175.144 37.8387 175.21L37.7552 175.204L41.7356 175.38C45.5551 175.299 48.9939 174.769 52.3077 173.849L52.0899 173.901C55.3908 172.997 58.695 171.944 62.0022 170.742C62.7366 170.51 63.5 170.384 64.2699 170.365L64.3376 170.366C65.1576 170.361 65.958 170.617 66.6227 171.097L66.601 171.083C67.2334 171.499 67.746 172.074 68.0882 172.749C68.4303 173.425 68.59 174.177 68.5516 174.933L68.5532 174.959C68.5541 175.696 68.3293 176.415 67.9089 177.02C67.4886 177.626 66.8928 178.088 66.2017 178.344L66.1916 178.35C61.3072 180.344 55.9542 182.025 50.4594 183.252L49.8524 183.361C44.5258 184.531 38.6178 184.51 32.7382 183.02L32.7144 183.013C28.3062 182.113 24.3436 179.72 21.496 176.238L21.5409 176.293C18.8059 172.818 17.2186 168.581 16.9985 164.167L16.9971 164.014C16.6577 160.363 16.8901 156.682 17.686 153.103L17.7051 153.032C18.5095 149.401 19.6214 145.845 21.029 142.403L20.9124 142.711C25.2275 131.966 30.5437 122.558 36.8544 114.037L36.3361 114.798C42.9128 105.761 50.0607 97.1542 57.7361 89.0289L56.685 90.2244C57.2579 89.6235 57.6824 88.8971 57.9246 88.1032C58.1266 87.2994 58.1936 86.4594 58.119 85.634L58.1221 85.6857C57.8005 81.8757 57.5483 78.0814 57.3656 74.3029L56.8232 62.9775C56.8784 62.7077 56.8787 62.4296 56.824 62.1597C56.7693 61.8898 56.6608 61.6337 56.5049 61.4066C56.0742 61.0402 55.5197 60.8521 54.9549 60.8809L54.9729 60.8772C49.9443 60.724 44.9358 60.76 39.9474 60.9854C34.8534 61.2122 29.7986 61.9837 24.8695 63.2866L25.2492 63.2016C23.3209 63.7333 21.4341 64.4052 19.604 65.2119L19.6902 65.1756C17.873 65.9864 16.0991 66.891 14.3759 67.8858C11.9452 69.2372 10.0882 71.4241 9.1496 74.0407L9.05834 74.3813C8.32616 77.1138 8.59464 79.8853 9.64956 82.2902L9.64007 82.2622C10.5146 84.981 11.7785 87.4306 13.4317 89.611L13.4766 89.6655C15.1354 91.8248 16.8913 93.8969 18.7441 95.8818C19.4674 96.5227 20.1219 97.1451 20.7078 97.7492L22.4574 99.5593C23.2981 100.406 23.8144 101.521 23.916 102.709L23.9154 102.743C23.9568 103.289 23.876 103.838 23.6788 104.349C23.4816 104.86 23.173 105.32 22.7755 105.697L22.7876 105.684C22.4168 106.129 21.9521 106.487 21.4267 106.732C20.9013 106.977 20.3281 107.104 19.7482 107.102L19.7223 107.103C18.5107 107.075 17.3519 106.601 16.4677 105.773L16.4872 105.795C13.6511 103.364 11.0362 100.686 8.67337 97.7929L8.82175 97.9685C6.48442 95.1463 4.46963 92.0723 2.81483 88.8037L2.78793 88.7455C1.80838 86.706 1.06008 84.5636 0.556979 82.3582L0.520149 82.1785C0.0525846 80.0204 -0.101043 77.8063 0.0640115 75.6046L0.0763077 75.4636C0.363872 72.6725 1.28476 69.984 2.76892 67.6026L2.70325 67.7208C4.19588 65.3556 6.09447 63.2723 8.31173 61.5665L8.25724 61.6113C10.5684 59.814 13.0211 58.3659 15.6153 57.267L15.7015 57.2307C18.2078 56.1535 20.9295 55.2868 23.7303 54.696L23.9978 54.6488C28.7879 53.5103 33.6671 52.7841 38.5818 52.4784L39.241 52.4598C44.2915 52.1719 49.4123 52.1291 54.6033 52.3316C54.9501 52.3056 55.339 52.3023 55.77 52.3216L55.8355 52.3307C56.3208 52.3588 56.731 52.3499 57.1375 52.323L57.0598 52.3276C57.115 51.0012 57.2178 49.6874 57.3682 48.3864C57.5185 47.0855 57.6794 45.7873 57.8509 44.492C58.3835 39.184 59.2395 33.9136 60.4143 28.71L60.4807 28.4307C61.6942 23.0436 63.7511 17.882 66.5754 13.1365L66.3927 13.4696C67.4495 11.3333 68.6322 9.51948 69.9834 7.86963L69.8654 8.02476C71.2455 6.31915 72.8632 4.8201 74.6692 3.57332L74.6369 3.59863C77.8404 1.31324 81.6652 0.0579459 85.6017 3.15924e-05L85.7449 0.00446C89.7861 0.109678 93.7376 1.22099 97.2412 3.23767L97.0853 3.15346C100.822 5.17692 104.214 7.77921 107.136 10.8635L106.995 10.7238C110.179 14.09 112.805 17.2298 115.243 20.4977L115.065 20.2719C115.661 21.2209 115.9 22.3886 115.674 23.5504L115.67 23.5663L115.61 23.8218C115.476 24.3226 115.241 24.7905 114.919 25.1963C114.597 25.6022 114.195 25.9374 113.737 26.1809C112.88 26.8125 111.81 27.086 110.754 26.9437L110.73 26.9373C109.611 26.7798 108.6 26.1853 107.919 25.2842L107.925 25.2942C106.554 23.7326 105.25 22.192 104.014 20.6725C102.839 19.2121 101.593 17.8101 100.28 16.4715L100.057 16.2588C98.6002 14.7098 96.9807 13.3224 95.2263 12.1207L95.0372 12.0021C93.1656 10.7545 91.1016 9.82292 88.9278 9.24452L88.7296 9.19142L88.6266 9.16381C86.8905 8.69862 85.1349 8.68662 83.4926 9.04454L83.5544 9.03565C81.8521 9.42708 80.2847 10.264 79.0132 11.4607L78.9788 11.4939C77.1595 12.8522 75.6423 14.5732 74.5233 16.548L74.4698 16.6525C73.3623 18.5787 72.3867 20.5777 71.5496 22.6358L71.4558 22.8908C69.6046 27.583 68.2687 32.4624 67.4715 37.4432L67.5242 37.1517C66.619 42.7496 66.1098 47.7576 65.8697 52.7442L65.9467 51.8226L65.9276 51.8939C65.8839 52.0602 65.8781 52.2343 65.9108 52.4032C65.9435 52.5722 66.0138 52.7316 66.1164 52.8698C66.336 53.1493 66.6354 53.3427 67.0145 53.45L67.0779 53.467C71.0847 54.0935 75.0163 54.7366 78.8725 55.3964C82.7288 56.0562 86.5706 56.7489 90.3979 57.4744C91.1656 57.5595 91.9414 57.5359 92.7023 57.4043L92.6505 57.4074C93.3927 57.2121 94.0881 56.8702 94.6957 56.4019L94.7079 56.3882C101.237 51.4611 108.016 46.874 115.018 42.645L114.936 42.6993C121.79 38.5828 128.968 35.0297 136.399 32.0748L136.843 31.9053C140.835 30.2617 144.917 28.8443 149.069 27.6599L149.661 27.5128C153.932 26.3106 158.338 25.646 162.774 25.5341L163.172 25.5389C165.973 25.4068 168.779 25.6338 171.522 26.2142L171.601 26.2355C174.494 26.8693 177.23 28.0758 179.648 29.7839L179.511 29.696C182.444 31.5601 184.642 34.1357 186.005 37.1068L186.02 37.1448C187.298 40.1105 188.03 43.4051 188.091 46.7916L188.084 46.9765C188.295 50.4372 187.925 54.26 186.909 58.0539L186.883 58.149C185.887 61.8663 184.685 65.466 183.276 68.9482L183.43 68.5311C183.032 69.4659 182.644 70.3551 182.265 71.1986C181.798 72.2449 181.325 73.1201 180.81 73.9666L180.894 73.8109C180.702 74.3173 180.401 74.7752 180.012 75.1523C179.623 75.5293 179.156 75.8161 178.644 75.9925L178.626 75.9961C177.571 76.3743 176.411 76.331 175.387 75.8753L175.411 75.8817C174.898 75.6918 174.429 75.4016 174.03 75.0279C173.631 74.6542 173.311 74.2047 173.088 73.7058L173.082 73.6958C172.844 73.1644 172.723 72.5886 172.725 72.0066C172.727 71.4246 172.853 70.8498 173.095 70.3204L173.088 70.3442C173.673 68.7124 174.338 67.0655 175.083 65.4033C175.757 63.9368 176.381 62.2109 176.872 60.4072C177.571 58.347 178.132 56.2428 178.552 54.1083L178.521 54.253C178.956 52.0414 179.238 49.8025 179.365 47.5521L179.336 47.8837C179.562 46.112 179.4 44.312 178.86 42.609C178.32 40.906 177.415 39.3407 176.209 38.022L176.17 37.9776C173.351 35.4445 169.658 34.1049 165.871 34.2416L165.98 34.2455C162.607 34.0692 159.225 34.3272 155.918 35.013L156.16 34.9674C153.003 35.6098 149.81 36.3929 146.583 37.3166C140.187 39.4866 133.981 42.1791 128.028 45.3669L128.098 45.3263C122.176 48.5102 116.403 51.9578 110.781 55.6693C109.722 56.2799 108.645 56.959 107.55 57.7069C106.454 58.4547 105.446 59.1523 104.525 59.7996L104.517 59.8313C104.492 59.9343 104.428 60.0237 104.339 60.0809C104.203 60.2129 104.117 60.3879 104.096 60.5761L106.397 61.1841C118.216 64.5124 129.496 68.4262 140.406 72.9284L138.974 72.3749C150.973 77.3134 161.419 82.6929 171.272 88.8222L169.902 88.039C175.49 91.3447 179.978 94.4147 184.267 97.7201L183.468 97.1496C188.42 100.93 192.482 104.607 196.216 108.554L195.84 108.181C197.961 110.541 199.731 112.781 201.364 115.12L201.285 115.005C202.98 117.429 204.39 119.937 205.575 122.555L205.617 122.652C207.745 127.203 208.345 132.542 206.932 137.817L206.735 138.52L206.743 138.488C204.926 143.604 201.237 147.841 196.42 150.349L196.4 150.361C193.011 152.319 189.373 153.812 185.584 154.797L185.348 154.853C181.609 155.81 177.801 156.473 173.958 156.835L173.399 156.863C172.345 156.887 171.318 156.527 170.509 155.851L170.531 155.866C170.103 155.523 169.751 155.095 169.498 154.609C169.245 154.124 169.096 153.59 169.061 153.044L169.059 153.018C168.974 152.48 169.003 151.931 169.145 151.406C169.287 150.881 169.539 150.391 169.884 149.971L169.87 149.992C170.58 149.056 171.618 148.422 172.776 148.216L172.802 148.214C174.695 147.827 176.614 147.484 178.558 147.184C180.504 146.889 182.424 146.438 184.298 145.836L184.132 145.885C185.834 145.399 187.334 144.841 188.786 144.178L188.72 144.203C190.164 143.548 191.604 142.816 193.039 142.007C195.522 140.635 197.522 138.403 198.554 135.598L198.584 135.487C199.356 132.604 199.052 129.679 197.912 127.149L197.921 127.177C197.065 124.878 195.908 122.701 194.482 120.704L194.445 120.651C193.038 118.679 191.487 116.814 189.805 115.07L189.617 114.884C185.659 110.518 181.266 106.565 176.508 103.086L175.974 102.731C171.413 99.3733 166.671 96.2665 161.772 93.4244L160.62 92.81C155.042 89.6743 149.379 86.742 143.63 84.0131C138.06 81.3354 132.336 78.9908 126.487 76.9919L125.98 76.8221C121.183 75.2366 116.338 73.6894 111.446 72.1806C106.554 70.6717 101.694 69.1826 96.8648 67.7133L96.7855 67.692C96.1575 67.5277 95.5062 67.4709 94.8593 67.524L94.9032 67.5188C94.3021 67.5716 93.746 67.8587 93.3551 68.3179L93.3429 68.3316L80.8951 79.2409C76.7798 82.9091 72.7332 86.5956 68.7553 90.3006C68.3778 90.5354 68.0869 90.8865 67.9265 91.301L67.9243 91.3089C67.7182 91.7475 67.6267 92.2311 67.6581 92.7147L67.6566 92.6888C68.6336 99.0627 69.7354 105.394 70.9621 111.682C72.1887 117.97 73.6834 124.219 75.4462 130.43C77.2089 136.641 79.1862 142.76 81.378 148.786C83.5699 154.812 86.0488 160.728 88.815 166.534C91.265 171.596 93.8465 176.295 96.6512 180.858L96.7056 180.94C99.4559 185.421 102.668 189.669 106.284 193.583L106.558 193.861C108.103 195.641 109.949 197.409 111.953 198.999L112.187 199.172C114.055 200.666 116.354 201.918 118.892 202.751L118.947 202.766C121.052 203.531 123.335 203.665 125.514 203.151L125.45 203.167C127.54 202.598 129.397 201.5 130.858 199.981L130.905 199.934C132.384 198.565 133.723 196.869 134.775 194.97L134.843 194.844C135.865 192.971 136.782 191.043 137.589 189.068L137.697 188.792C140.113 182.065 141.665 175.058 142.315 167.94L142.257 168.443C142.912 161.538 143.279 154.596 143.359 147.617C143.198 140.42 142.721 133.289 141.929 126.224C141.138 119.158 140.12 112.1 138.877 105.049C138.711 104.496 138.619 103.923 138.603 103.345L138.6 103.294C138.522 102.735 138.638 102.167 138.929 101.684L138.937 101.652C139.196 100.686 139.826 99.9211 140.642 99.4775C141.489 98.9744 142.48 98.768 143.458 98.891L143.482 98.8973C144.387 98.9883 145.236 99.3771 145.896 100.003L145.875 99.9883C146.61 100.655 147.078 101.564 147.194 102.549L147.195 102.575C147.572 105.058 148.01 107.598 148.51 110.194C149.01 112.789 149.432 115.387 149.778 117.987C150.8 125.861 151.509 133.799 151.903 141.799C152.331 148.604 152.187 156.689 151.417 164.827L151.297 165.78C150.83 170.536 149.935 176.256 148.723 181.984L148.628 182.4C147.412 188.042 145.397 193.482 142.643 198.555L142.828 198.18C142.249 199.219 141.59 200.285 140.85 201.377C140.08 202.508 139.239 203.59 138.334 204.616L138.46 204.463C135.456 208.285 131.322 210.87 126.743 211.884L126.617 211.91C123.755 212.476 120.585 212.416 117.445 211.574C115.692 211.099 114.062 210.43 112.554 209.568L112.68 209.635C108.712 207.638 105.383 205.159 102.553 202.244L102.694 202.384C99.7362 199.351 96.9777 196.131 94.4352 192.743L94.5931 192.947C90.0323 186.87 86.0443 180.385 82.6802 173.575L82.5973 173.408C79.2144 166.542 76.1675 159.543 73.4566 152.41C70.5524 144.707 68.0646 136.854 66.0041 128.885L65.7094 127.575C63.5597 119.172 61.7888 110.613 60.3968 101.898L60.1995 100.954L59.8086 99.5589ZM65.4776 61.7225L66.1098 80.2283C69.0915 77.4505 72.0021 74.8008 74.8416 72.2792C77.6811 69.7576 80.6413 67.1976 83.7222 64.5992L65.4776 61.7225ZM101.122 118.226L100.979 118.188C97.6495 117.296 94.992 115.132 93.4078 112.356C92.584 111.053 92.0396 109.592 91.809 108.068C91.5784 106.544 91.6665 104.988 92.0679 103.5L92.2599 102.847L92.3002 102.696C93.181 99.4092 95.3382 96.8123 98.0949 95.2759C99.4828 94.4443 101.024 93.9004 102.627 93.6765C104.23 93.4527 105.862 93.5534 107.425 93.9728L107.615 94.0237L107.75 94.0599C111.08 94.952 113.737 97.1157 115.321 99.8917C117.01 102.594 117.613 105.956 116.724 109.274L116.682 109.433L116.643 109.575C115.756 112.886 113.553 115.496 110.747 116.994L110.737 117C109.323 117.831 107.756 118.371 106.129 118.588C104.502 118.806 102.848 118.696 101.264 118.265L101.145 118.233L101.153 118.235L101.122 118.226Z" fill="url(#paint0_linear_499_14759)" fill-opacity="0.26"/>
<defs>
<linearGradient id="paint0_linear_499_14759" x1="190.713" y1="178.486" x2="223.353" y2="16.7411" gradientUnits="userSpaceOnUse">
<stop stop-color="white"/>
<stop offset="1" stop-color="#565656"/>
</linearGradient>
</defs>
</svg>
