<svg width="333" height="221" viewBox="0 0 333 221" fill="none" xmlns="http://www.w3.org/2000/svg">
<path d="M324.561 135.305C313.527 116.569 291.353 105.458 269.796 107.87C257.082 109.189 243.946 115.841 235.25 125.247C232.937 127.839 230.725 129.94 230.293 130.056C229.97 130.142 225.431 127.878 220.503 125.023L211.36 119.816L214.816 109.842C218.609 98.9654 219.808 90.06 219.215 77.9225C218.734 67.4951 212.535 47.8117 207.157 39.3925C191.217 14.4309 164.235 -0.380017 135.082 0.00750975C126.791 0.140898 123.359 0.712432 111.959 4.34703C97.1359 9.015 90.5078 12.763 79.3583 22.9427C71.5711 30.1334 59.6417 49.9183 56.77 60.78C48.2383 91.9508 60.0697 128.338 84.8502 147.45L90.3713 151.655L84.8196 161.147L79.4048 170.718L73.9823 169.039C48.2304 160.975 20.9605 171.414 7.8639 194.179C2.42013 203.642 0.0682307 211.697 0.00179185 221.807C-0.160085 241.919 10.3841 260.554 27.8279 270.844C54.6388 286.745 89.0367 277.876 104.421 251.133C112.705 236.733 114.308 224.587 109.929 208.244C106.565 195.689 101.821 187.912 93.0109 180.065L88.8008 176.437L94.1158 167.356C97.0349 162.282 99.8333 158.052 100.265 157.936C100.804 157.792 103.858 158.83 107.243 160.243C115.051 163.487 128.32 165.963 137.913 165.945C149.378 166.005 168.094 160.758 178.042 154.728C186.704 149.507 196.367 141.118 201.96 133.935L205.671 129.229L215.254 134.781L224.974 140.413L222.905 146.072C218.431 158.291 219.921 176.8 226.322 189.469C233.599 204.108 249.332 215.784 265.949 219.104C276.446 221.163 289.887 219.534 299.889 214.998C317.174 207.002 329.87 189.216 332.107 169.94C333.177 161.417 329.139 142.895 324.561 135.305ZM321.352 168.646C320.031 181.412 312.931 193.755 302.467 201.315C295.668 206.153 283.318 209.694 274.343 209.431C261.302 209.097 247.102 201.418 239.351 190.618C234.35 183.606 229.979 167.725 230.82 160.075C232.369 146.436 239.096 134.425 249.265 127.06C257.803 120.944 271.938 117.157 281.339 118.582C295.521 120.582 306.402 127.527 314.551 139.38C319.668 146.825 322.476 158.6 321.352 168.646ZM208.456 77.9053C209.248 99.8498 203.78 115.699 190.123 131.191C179.682 143.153 168.439 149.529 151.267 153.203C134.124 156.984 120.843 155.323 104.605 147.377C87.8495 139.222 75.8758 125.61 69.0083 106.454C61.6059 86.1649 63.2446 66.8174 73.9164 47.9495C79.0945 38.7898 89.3901 26.2869 92.3033 25.5063C92.8428 25.3617 94.0215 24.5819 94.9265 23.6434C97.5915 21.0732 112.109 14.3993 119.23 12.4912C125.38 10.8433 138.16 10.2028 146.741 11.1518C154.479 11.9784 166.378 16.6784 175.118 22.1086C185.559 28.7071 194.012 37.8105 199.647 48.481C201.612 52.3626 204.017 56.5903 204.854 57.9899C206.803 60.9477 208.091 67.9109 208.456 77.9053ZM101.19 229.146C97.8536 249.065 85.0265 262.478 65.2653 266.845C48.3384 270.568 33.6683 265.451 21.313 251.709C16.502 246.27 11.4615 233.932 10.826 225.519C9.69871 212.248 16.0743 197.2 26.7504 187.843C32.6488 182.666 33.5618 182.19 44.8909 179.154C56.1121 176.147 57.1412 176.103 64.1613 177.703C77.9566 180.85 88.7378 188.286 95.5464 199.454C99.9873 206.964 102.583 220.537 101.19 229.146Z" fill="url(#paint0_linear_499_12648)" fill-opacity="0.26"/>
<defs>
<linearGradient id="paint0_linear_499_12648" x1="37.1896" y1="264.51" x2="103.921" y2="69.309" gradientUnits="userSpaceOnUse">
<stop stop-color="white"/>
<stop offset="1" stop-color="#262626"/>
</linearGradient>
</defs>
</svg>
