<svg width="123" height="81" viewBox="0 0 123 81" fill="none" xmlns="http://www.w3.org/2000/svg">
<path d="M119.565 49.8449C115.5 42.9427 107.331 38.8496 99.39 39.7382C94.7063 40.224 89.8673 42.6744 86.6634 46.1396C85.8116 47.0943 84.9966 47.8683 84.8376 47.9109C84.7183 47.9428 83.0464 47.1088 81.2309 46.0569L77.8627 44.1389L79.136 40.4645C80.5333 36.4577 80.9748 33.177 80.7566 28.7057C80.5793 24.8644 78.2956 17.6132 76.3143 14.5117C70.4422 5.31612 60.5026 -0.14004 49.7627 0.0027216C46.7086 0.051858 45.4444 0.262406 41.2448 1.60135C35.784 3.32097 33.3423 4.70171 29.2349 8.45178C26.3662 11.1008 21.9715 18.3893 20.9136 22.3906C17.7707 33.8736 22.1292 47.278 31.2581 54.3189L33.292 55.8679L31.2468 59.3646L29.2521 62.8905L27.2545 62.2719C17.7678 59.3011 7.72185 63.1468 2.89722 71.5334C0.891797 75.0194 0.0253837 77.9865 0.000908818 81.7109C-0.0587256 89.1199 3.82561 95.9849 10.2517 99.7758C20.1285 105.633 32.8003 102.366 38.4678 92.5144C41.5195 87.2096 42.1099 82.7353 40.4967 76.7147C39.2574 72.0896 37.5099 69.2246 34.2644 66.3336L32.7134 64.9971L34.6714 61.652C35.7468 59.7827 36.7777 58.2244 36.9367 58.1818C37.1354 58.1286 38.2603 58.5109 39.5074 59.0315C42.3837 60.2265 47.2717 61.139 50.8058 61.1321C55.0293 61.1543 61.924 59.2214 65.5889 57.0001C68.7799 55.0767 72.3397 51.9862 74.3998 49.3402L75.7671 47.6063L79.2973 49.6518L82.8779 51.7265L82.1158 53.811C80.4676 58.3124 81.0166 65.1309 83.3748 69.7981C86.0552 75.1909 91.8514 79.4924 97.9728 80.7153C101.84 81.474 106.791 80.8737 110.476 79.2027C116.844 76.2572 121.521 69.7049 122.344 62.604C122.739 59.4643 121.251 52.6408 119.565 49.8449ZM118.383 62.1272C117.896 66.8301 115.28 71.377 111.426 74.162C108.921 75.9442 104.371 77.2487 101.065 77.1517C96.2608 77.0288 91.0297 74.1998 88.1744 70.2214C86.332 67.6382 84.7218 61.7878 85.0317 58.9697C85.6024 53.9451 88.0806 49.5205 91.8267 46.8074C94.972 44.5544 100.179 43.1592 103.642 43.6841C108.867 44.4209 112.875 46.9793 115.877 51.3458C117.762 54.0884 118.797 58.4265 118.383 62.1272ZM76.793 28.6994C77.0846 36.7834 75.0706 42.6221 70.0392 48.3292C66.193 52.7358 62.0511 55.0849 55.7252 56.438C49.4101 57.831 44.5173 57.219 38.5357 54.2919C32.363 51.2879 27.952 46.2734 25.4221 39.2164C22.6951 31.7421 23.2988 24.6147 27.2302 17.664C29.1377 14.2897 32.9305 9.68372 34.0037 9.39616C34.2024 9.34291 34.6367 9.05562 34.9701 8.70989C35.9518 7.76309 41.2998 5.30447 43.9232 4.60155C46.1888 3.99448 50.8969 3.75856 54.0579 4.10814C56.9085 4.41265 61.2918 6.14408 64.5117 8.1445C68.3581 10.5753 71.472 13.9289 73.5477 17.8598C74.2717 19.2897 75.1576 20.8472 75.4662 21.3628C76.1841 22.4524 76.6585 25.0176 76.793 28.6994ZM37.2774 84.4148C36.0484 91.7525 31.323 96.6938 24.0432 98.3025C17.8076 99.6742 12.4033 97.789 7.85173 92.7267C6.0794 90.723 4.22253 86.1779 3.98842 83.0783C3.57314 78.1897 5.92182 72.646 9.85477 69.199C12.0277 67.292 12.364 67.1164 16.5375 65.9982C20.6713 64.8905 21.0504 64.8744 23.6365 65.4635C28.7186 66.6231 32.6902 69.3622 35.1984 73.4764C36.8344 76.2431 37.7907 81.2431 37.2774 84.4148Z" fill="url(#paint0_linear_499_14152)" fill-opacity="0.26"/>
<defs>
<linearGradient id="paint0_linear_499_14152" x1="13.7005" y1="97.4424" x2="38.2834" y2="25.5326" gradientUnits="userSpaceOnUse">
<stop stop-color="white"/>
<stop offset="1" stop-color="#262626"/>
</linearGradient>
</defs>
</svg>
