<svg width="125" height="81" viewBox="0 0 125 81" fill="none" xmlns="http://www.w3.org/2000/svg">
<path d="M0.318787 11.0452C2.09122 18.8567 8.62754 25.2407 16.4629 26.81C21.0724 27.772 26.4275 26.9097 30.5336 24.5833C31.6355 23.933 32.6474 23.4437 32.8118 23.4514C32.9351 23.4573 34.2741 24.7604 35.6836 26.3148L38.3087 29.1664L35.978 32.2794C33.4281 35.6712 32.0094 38.6621 30.8572 42.9879C29.8575 46.7011 29.8272 54.3033 30.7711 57.8606C33.5676 68.4066 41.3764 76.6278 51.6508 79.7589C54.5751 80.6412 55.8435 80.8252 60.2513 80.8272C65.9764 80.8502 68.7225 80.2777 73.7759 77.9548C77.3145 76.304 83.718 70.6978 85.943 67.2079C92.4301 57.2252 92.3558 43.1301 85.8014 33.6459L84.3351 31.5516L87.347 28.8428L90.3198 26.0909L92.0346 27.2878C100.168 33.0036 110.908 32.3962 118.055 25.8747C121.026 23.1639 122.754 20.601 123.91 17.0605C126.22 10.0208 124.609 2.29949 119.64 -3.26651C112.013 -11.851 98.9482 -12.5934 90.5524 -4.9326C86.0316 -0.807546 84.1081 3.27514 83.8134 9.50114C83.587 14.284 84.3802 17.5449 86.5924 21.2861L87.6633 23.0311L84.7806 25.622C83.1875 27.0756 81.7314 28.2464 81.567 28.2387C81.3615 28.2289 80.4062 27.5225 79.3766 26.6473C77.0001 24.6339 72.6213 22.2778 69.2526 21.2092C65.2361 19.9033 58.0801 19.6472 53.9131 20.6484C50.2883 21.5099 45.957 23.3711 43.1897 25.265L41.3598 26.5008L38.6191 23.4784L35.8393 20.4128L37.1994 18.6589C40.1388 14.8722 41.69 8.2098 40.8633 3.04647C39.9504 -2.9061 35.7375 -8.76693 30.2781 -11.7941C26.8252 -13.6931 21.9259 -14.6275 17.9076 -14.1565C10.9456 -13.2877 4.49692 -8.46871 1.55207 -1.95491C0.221492 0.916129 -0.43717 7.86874 0.318787 11.0452ZM5.18115 -0.29547C7.07523 -4.62751 10.9502 -8.16326 15.4694 -9.64364C18.3974 -10.5795 23.1283 -10.4382 26.2484 -9.34006C30.7876 -7.7615 34.9102 -3.47527 36.42 1.18318C37.3892 4.2044 37.1435 10.2674 35.991 12.8576C33.9188 17.4705 30.2121 20.9316 25.8182 22.3766C22.1367 23.566 16.7521 23.3111 13.6123 21.7575C8.85968 19.4663 5.81947 15.8099 4.28816 10.7372C3.32668 7.551 3.66079 3.1038 5.18115 -0.29547ZM34.631 44.1997C36.8124 36.41 40.5071 31.4607 47.0361 27.5546C52.0405 24.5269 56.7007 23.5491 63.1384 24.1844C69.578 24.7785 74.0527 26.8499 78.8605 31.4578C83.8268 36.1972 86.5033 42.3159 86.7666 49.8081C87.0907 57.7576 84.3474 64.3636 78.488 69.789C75.6444 72.4232 70.6302 75.657 69.5204 75.6045C69.3149 75.5948 68.8138 75.7364 68.3911 75.9643C67.1679 76.5676 61.3254 77.2828 58.6125 77.1544C56.2696 77.0435 51.7129 75.836 48.808 74.5415C46.1851 73.3842 42.5363 70.4015 40.0775 67.5164C37.1528 64.0307 35.2067 59.8888 34.4251 55.5127C34.1704 53.9304 33.8003 52.1772 33.6632 51.5922C33.3107 50.3358 33.6392 47.7479 34.631 44.1997ZM89.2225 3.14531C92.6254 -3.47079 98.6299 -6.74045 106.054 -6.05845C112.412 -5.46826 116.986 -2.02843 119.782 4.17857C120.861 6.62644 121.247 11.521 120.527 14.5449C119.436 19.3282 115.512 23.8947 110.717 25.9819C108.067 27.1375 107.693 27.2025 103.377 26.9982C99.1023 26.7958 98.7363 26.6959 96.4519 25.348C91.9635 22.6974 89.0133 18.8799 87.8754 14.1978C87.1586 11.0645 87.7686 6.01051 89.2225 3.14531Z" fill="url(#paint0_linear_499_14151)" fill-opacity="0.26"/>
<defs>
<linearGradient id="paint0_linear_499_14151" x1="115.645" y1="-2.09282" x2="70.3522" y2="58.931" gradientUnits="userSpaceOnUse">
<stop stop-color="white"/>
<stop offset="1" stop-color="#262626"/>
</linearGradient>
</defs>
</svg>
