<svg width="340" height="206" viewBox="0 0 340 206" fill="none" xmlns="http://www.w3.org/2000/svg">
<path d="M0.865727 15.69C5.67724 36.8945 23.4204 54.224 44.6896 58.4837C57.2025 61.095 71.739 58.7542 82.8851 52.4389C85.8761 50.6735 88.6229 49.3452 89.0692 49.3663C89.4039 49.3822 93.0386 52.9194 96.8647 57.1388L103.991 64.8797L97.6641 73.33C90.7424 82.5373 86.8915 90.6561 83.7638 102.399C81.0502 112.478 80.9682 133.115 83.5306 142.771C91.122 171.398 112.319 193.715 140.209 202.214C148.148 204.609 151.591 205.108 163.556 205.114C179.097 205.176 186.551 203.622 200.269 197.316C209.874 192.835 227.257 177.617 233.296 168.143C250.906 141.045 250.703 102.783 232.911 77.0382L228.931 71.3533L237.107 64.0001L245.176 56.5296L249.831 59.7787C271.91 75.2942 301.063 73.6451 320.464 55.9421C328.528 48.5836 333.219 41.6264 336.357 32.0156C342.629 12.906 338.253 -8.05354 324.766 -23.1625C304.063 -46.4652 268.597 -48.4801 245.807 -27.6844C233.535 -16.4867 228.314 -5.40407 227.514 11.4966C226.9 24.4799 229.053 33.3315 235.058 43.4871L237.965 48.2239L230.14 55.2572C225.815 59.203 221.863 62.3813 221.417 62.3601C220.859 62.3337 218.266 60.4162 215.471 58.0404C209.02 52.5751 197.133 46.1794 187.989 43.2788C177.086 39.7341 157.661 39.0391 146.349 41.7569C136.51 44.0957 124.752 49.148 117.24 54.2891L112.273 57.6437L104.833 49.4393L97.2874 41.1177L100.979 36.3567C108.958 26.0776 113.169 7.99228 110.925 -6.0237C108.446 -22.1821 97.0102 -38.0913 82.1906 -46.3084C72.8174 -51.4634 59.5182 -53.9998 48.6104 -52.7212C29.7118 -50.3625 12.2069 -37.2811 4.21317 -19.5991C0.601374 -11.8056 -1.18643 7.06753 0.865727 15.69ZM14.0644 -15.0946C19.2059 -26.854 29.7245 -36.4521 41.992 -40.4707C49.9401 -43.0111 62.7821 -42.6277 71.2517 -39.6469C83.5736 -35.362 94.7648 -23.727 98.8631 -11.0815C101.494 -2.88037 100.827 13.5779 97.6989 20.6091C92.074 33.1309 82.0123 42.5262 70.0848 46.4488C60.0912 49.6776 45.4746 48.9859 36.9517 44.7686C24.0504 38.5493 15.7976 28.6238 11.6407 14.8538C9.03066 6.20494 9.93748 -5.86713 14.0644 -15.0946ZM94.008 105.688C99.9291 84.5425 109.958 71.1074 127.682 60.5042C141.266 52.2852 153.916 49.6308 171.392 51.3552C188.872 52.9677 201.019 58.5904 214.07 71.0987C227.551 83.9638 234.817 100.573 235.532 120.911C236.412 142.49 228.965 160.422 213.06 175.15C205.341 182.3 191.73 191.079 188.717 190.936C188.159 190.91 186.799 191.294 185.651 191.913C182.331 193.551 166.471 195.492 159.107 195.144C152.747 194.843 140.378 191.565 132.493 188.051C125.373 184.91 115.468 176.813 108.793 168.982C100.854 159.52 95.571 148.276 93.4493 136.398C92.758 132.102 91.7531 127.343 91.381 125.755C90.4241 122.345 91.3157 115.32 94.008 105.688ZM242.197 -5.75662C251.434 -23.7163 267.734 -32.592 287.887 -30.7409C305.144 -29.1389 317.562 -19.8016 325.152 -2.95258C328.08 3.6922 329.129 16.9785 327.175 25.1871C324.212 38.1714 313.561 50.5675 300.545 56.2334C293.351 59.3704 292.336 59.5467 280.621 58.9923C269.017 58.4431 268.023 58.1717 261.822 54.513C249.638 47.318 241.63 36.9554 238.541 24.2456C236.595 15.7403 238.251 2.02109 242.197 -5.75662Z" fill="url(#paint0_linear_499_12649)" fill-opacity="0.26"/>
<defs>
<linearGradient id="paint0_linear_499_12649" x1="313.922" y1="-19.9763" x2="190.975" y2="145.676" gradientUnits="userSpaceOnUse">
<stop stop-color="white"/>
<stop offset="1" stop-color="#262626"/>
</linearGradient>
</defs>
</svg>
