<svg width="289" height="120" viewBox="0 0 289 120" fill="none" xmlns="http://www.w3.org/2000/svg">
<path d="M-28.5839 98.7277C-20.7403 119.007 -0.665885 133.573 20.9967 134.694C33.7563 135.459 47.7979 131.029 57.9072 123.16C60.6098 120.979 63.1342 119.265 63.5788 119.221C63.9123 119.188 68.0227 122.159 72.4217 125.777L80.5976 132.4L75.5668 141.68C70.0575 151.796 67.4281 160.389 66.041 172.461C64.8219 182.828 67.7414 203.257 71.6806 212.438C83.3539 239.658 107.571 258.655 136.4 263.008C144.603 264.223 148.082 264.217 159.92 262.482C175.305 260.284 182.454 257.663 195.109 249.429C203.961 243.599 218.946 226.015 223.544 215.764C237.026 186.393 231.262 148.568 209.916 125.683L205.151 120.638L212.171 112.174L219.068 103.609L224.146 106.147C248.246 118.287 276.85 112.417 293.47 92.0808C300.379 83.628 304.008 76.0626 305.716 66.0977C309.143 46.2792 301.766 26.1786 286.225 13.1914C262.353 -6.85331 226.972 -3.68989 207.447 20.1986C196.934 33.0617 193.38 44.7857 195.046 61.6231C196.326 74.5577 199.743 83.0022 207.161 92.1767L210.726 96.4404L204.007 104.537C200.302 109.069 196.854 112.789 196.409 112.833C195.853 112.888 193.009 111.368 189.898 109.423C182.721 104.954 170.031 100.355 160.562 98.8147C149.259 96.893 129.94 99.0299 119.144 103.364C109.749 107.108 98.851 113.816 92.1663 119.995L87.7396 124.036L79.1861 117.001L70.5103 109.865L73.4708 104.618C79.8702 93.2878 81.4065 74.7824 77.1481 61.2417C72.3466 45.6154 58.7186 31.5381 42.8617 25.5632C32.8386 21.8259 19.3119 21.2503 8.70601 24.1013C-9.64876 29.1829 -25.0656 44.6706 -30.4033 63.327C-32.8435 71.5629 -31.868 90.4953 -28.5839 98.7277ZM-20.0017 66.3512C-16.6248 53.9691 -7.61357 42.9436 3.93921 37.1839C11.4335 33.5148 24.1947 32.0268 33.0078 33.7445C45.8217 36.1922 58.5858 46.0763 64.4792 57.9914C68.275 65.7228 70.0081 82.1032 67.9353 89.5145C64.191 102.721 55.6023 113.48 44.372 119.095C34.9541 123.742 20.3923 125.183 11.3467 122.25C-2.32176 117.973 -11.9301 109.353 -18.0451 96.3337C-21.8849 88.1563 -22.7431 76.0807 -20.0017 66.3512ZM76.6547 174.226C79.4382 152.444 87.4073 137.694 103.4 124.626C115.645 114.519 127.775 110.053 145.316 109.219C162.845 108.272 175.68 112.069 190.411 122.547C205.62 133.315 215.223 148.691 218.888 168.709C222.896 189.931 218.136 208.755 204.541 225.639C197.944 233.836 185.754 244.5 182.753 244.797C182.197 244.852 180.907 245.43 179.862 246.209C176.815 248.312 161.406 252.539 154.069 253.265C147.733 253.892 135.019 252.448 126.706 250.118C119.205 248.045 108.228 241.475 100.486 234.697C91.2552 226.49 84.3936 216.134 80.5672 204.69C79.2587 200.541 77.5725 195.979 76.9734 194.462C75.5308 191.227 75.3914 184.147 76.6547 174.226ZM207.064 42.4182C213.592 23.3063 228.427 12.1549 248.635 11.056C265.942 10.1316 279.586 17.5641 289.545 33.1304C293.409 39.2787 296.378 52.2714 295.638 60.6768C294.595 73.954 285.86 87.7671 273.805 95.2653C267.144 99.415 266.166 99.737 254.494 100.892C242.934 102.036 241.911 101.912 235.244 99.1937C222.143 93.8469 212.713 84.7589 207.809 72.6332C204.647 64.5013 204.29 50.6871 207.064 42.4182Z" fill="url(#paint0_linear_499_12433)" fill-opacity="0.26"/>
<defs>
<linearGradient id="paint0_linear_499_12433" x1="275.959" y1="17.9205" x2="178.405" y2="199.689" gradientUnits="userSpaceOnUse">
<stop stop-color="white"/>
<stop offset="1" stop-color="#262626"/>
</linearGradient>
</defs>
</svg>
