<svg width="159" height="171" viewBox="0 0 159 171" fill="none" xmlns="http://www.w3.org/2000/svg">
<g clip-path="url(#clip0_499_12457)">
<circle cx="39.1919" cy="79.5954" r="26.6667" transform="rotate(-15 39.1919 79.5954)" stroke="black" stroke-width="3"/>
<path d="M35.0508 64.1406L43.333 95.0503" stroke="black" stroke-width="3" stroke-linecap="round"/>
<path d="M45.1938 71.0855C44.2409 67.5291 40.0087 65.573 35.741 66.7166C31.4732 67.8601 28.7861 71.6702 29.739 75.2266C30.692 78.7831 34.9242 80.7391 39.1919 79.5956C43.4596 78.452 47.6918 80.4081 48.6448 83.9645C49.5977 87.521 46.9105 91.331 42.6428 92.4746C38.3751 93.6181 34.1429 91.6621 33.1899 88.1056" stroke="black" stroke-width="3" stroke-linecap="round"/>
</g>
<g clip-path="url(#clip1_499_12457)">
<circle cx="118.692" cy="52.0961" r="24.5833" transform="rotate(30 118.692 52.0961)" stroke="black" stroke-width="2.5"/>
<path d="M126.067 39.3223L111.317 64.87" stroke="black" stroke-width="2.5" stroke-linecap="round"/>
<path d="M128.152 50.4611C129.849 47.5216 128.365 43.4877 124.838 41.4512C121.31 39.4146 117.075 40.1466 115.378 43.0861C113.681 46.0256 115.164 50.0595 118.692 52.0961C122.219 54.1326 123.703 58.1665 122.006 61.106C120.309 64.0455 116.073 64.7775 112.546 62.741C109.019 60.7044 107.535 56.6705 109.232 53.731" stroke="black" stroke-width="2.5" stroke-linecap="round"/>
</g>
<g clip-path="url(#clip2_499_12457)">
<circle cx="61.1919" cy="19.596" r="13.3333" transform="rotate(15 61.1919 19.596)" stroke="black" stroke-width="2"/>
<path d="M63.2625 11.8687L59.1213 27.3235" stroke="black" stroke-width="2" stroke-linecap="round"/>
<path d="M65.9183 17.4114C66.3948 15.6332 65.0512 13.7281 62.9174 13.1564C60.7835 12.5846 58.6674 13.5626 58.1909 15.3408C57.7144 17.1191 59.058 19.0241 61.1919 19.5959C63.3258 20.1676 64.6693 22.0727 64.1929 23.8509C63.7164 25.6291 61.6003 26.6071 59.4664 26.0354C57.3326 25.4636 55.989 23.5586 56.4655 21.7804" stroke="black" stroke-width="2" stroke-linecap="round"/>
</g>
<path d="M42.1919 99.0957L53.6919 98.0957V96.0957L52.6919 90.5957L53.1919 83.5957L54.6919 75.5957L58.1919 68.5957L63.6919 62.0957L71.6919 57.0957L83.1919 54.0957L91.1919 54.5957L102.192 58.0957L111.192 66.0957L116.692 74.0957L118.692 82.0957L122.692 84.0957L134.192 93.5957L140.692 105.096L141.692 117.096L140.192 123.596L136.192 132.596L128.192 140.596L117.192 146.096L94.1919 147.596H65.6919H46.6919L36.1919 143.596L31.1919 138.596L26.1919 130.596L25.1919 122.096L26.6919 114.096L31.1919 105.596L42.1919 99.0957Z" fill="white"/>
<path d="M97.0808 83.2546C100.556 82.0407 104.296 81.3802 108.192 81.3802C112.011 81.3802 115.68 82.0148 119.097 83.1832M54.7028 98.3142C53.1356 98.0102 51.5159 97.8508 49.8585 97.8508C36.0514 97.8508 24.8586 108.912 24.8586 122.557C24.8586 136.201 36.0514 147.263 49.8585 147.263H108.192C126.601 147.263 141.525 132.514 141.525 114.321C141.525 99.9024 132.151 87.6472 119.097 83.1832M54.7028 98.3142C53.3664 94.7497 52.6363 90.8943 52.6363 86.8704C52.6363 68.6775 67.5602 53.9292 85.9697 53.9292C103.118 53.9292 117.242 66.7258 119.097 83.1832M54.7028 98.3142C57.9953 98.9531 61.056 100.231 63.7474 102.011" stroke="black" stroke-width="3" stroke-linecap="round"/>
<defs>
<clipPath id="clip0_499_12457">
<rect width="64" height="64" fill="white" transform="translate(6.10352e-05 56.9683) rotate(-15)"/>
</clipPath>
<clipPath id="clip1_499_12457">
<rect width="59" height="59" fill="white" transform="translate(107.894 11.7983) rotate(30)"/>
</clipPath>
<clipPath id="clip2_499_12457">
<rect width="32" height="32" fill="white" transform="translate(49.8782) rotate(15)"/>
</clipPath>
</defs>
</svg>
