<svg width="291" height="291" viewBox="0 0 291 291" fill="none" xmlns="http://www.w3.org/2000/svg">
<g clip-path="url(#clip0_499_12440)">
<circle cx="191.626" cy="154.856" r="17.5" transform="rotate(-45 191.626 154.856)" stroke="#262626" stroke-width="3"/>
<path d="M158.288 106.955C156.144 107.843 154.222 109.765 150.378 113.609C146.534 117.452 144.612 119.374 143.724 121.518C142.54 124.377 142.54 127.589 143.724 130.448C144.265 131.753 145.188 132.975 146.695 134.599C148.909 136.985 149.859 140.294 149.016 143.439C148.174 146.583 145.697 148.974 142.586 149.934C140.469 150.587 139.058 151.184 137.938 152.044C135.483 153.927 133.877 156.709 133.473 159.777C133.17 162.077 133.874 164.703 135.28 169.954C136.687 175.204 137.391 177.83 138.804 179.671C140.687 182.126 143.469 183.732 146.537 184.135C147.937 184.32 149.457 184.131 151.616 183.639C154.791 182.914 158.132 183.746 160.434 186.049C162.736 188.351 163.568 191.692 162.843 194.865C162.35 197.025 162.162 198.546 162.346 199.946C162.75 203.014 164.356 205.795 166.811 207.679C168.652 209.092 171.277 209.795 176.528 211.202C181.779 212.609 184.404 213.313 186.705 213.01C189.773 212.606 192.554 211 194.438 208.545C195.298 207.424 195.895 206.013 196.548 203.897C197.507 200.786 199.898 198.309 203.043 197.466C206.188 196.623 209.497 197.573 211.884 199.788C213.507 201.294 214.73 202.218 216.035 202.758C218.894 203.942 222.105 203.942 224.964 202.758C227.108 201.87 229.03 199.948 232.874 196.104C236.718 192.261 238.64 190.339 239.528 188.195C240.712 185.336 240.712 182.124 239.528 179.265C238.987 177.96 238.064 176.738 236.557 175.114C234.342 172.727 233.393 169.419 234.235 166.274C235.078 163.129 237.555 160.738 240.666 159.778C242.782 159.126 244.193 158.529 245.314 157.669C247.769 155.785 249.375 153.003 249.778 149.936C250.081 147.635 249.378 145.01 247.971 139.759C246.564 134.508 245.861 131.883 244.448 130.042C242.564 127.587 239.783 125.981 236.715 125.577C235.315 125.393 233.794 125.581 231.635 126.074C228.461 126.798 225.12 125.966 222.818 123.664C220.516 121.362 219.684 118.022 220.409 114.848C220.902 112.688 221.09 111.167 220.906 109.767C220.502 106.699 218.896 103.918 216.441 102.034C214.6 100.621 211.975 99.9177 206.724 98.5108C201.473 97.1039 198.848 96.4004 196.547 96.7033C193.479 97.1072 190.697 98.7132 188.814 101.168C187.954 102.288 187.357 103.7 186.704 105.816C185.744 108.927 183.354 111.404 180.209 112.247C177.064 113.089 173.755 112.14 171.368 109.925C169.745 108.419 168.522 107.495 167.217 106.955C164.358 105.771 161.146 105.771 158.288 106.955Z" stroke="#262626" stroke-width="3"/>
</g>
<g clip-path="url(#clip1_499_12440)">
<circle cx="97.166" cy="135.765" r="13.375" transform="rotate(-24.7568 97.166 135.765)" stroke="#262626" stroke-width="3"/>
<path d="M85.9274 92.5991C84.1551 92.669 82.2687 93.5389 78.4959 95.2787C74.7231 97.0186 72.8367 97.8885 71.6329 99.191C70.0278 100.928 69.1785 103.231 69.2716 105.594C69.3141 106.673 69.653 107.794 70.3041 109.357C71.2608 111.653 71.0667 114.277 69.6309 116.309C68.1952 118.341 65.7869 119.401 63.3024 119.266C61.6118 119.175 60.442 119.23 59.411 119.55C57.1527 120.251 55.2655 121.821 54.1646 123.914C53.339 125.484 53.1491 127.553 52.7695 131.69C52.3898 135.827 52.2 137.896 52.7261 139.59C53.4277 141.848 54.9976 143.735 57.0906 144.836C58.0459 145.339 59.186 145.606 60.8647 145.823C63.3325 146.143 65.5081 147.623 66.5501 149.883C67.592 152.143 67.3052 154.758 65.9464 156.843C65.0218 158.261 64.4845 159.301 64.2464 160.354C63.7248 162.661 64.1408 165.08 65.4029 167.08C66.3496 168.58 68.0461 169.779 71.4393 172.176C74.8324 174.574 76.529 175.772 78.2589 176.164C80.5655 176.685 82.9849 176.269 84.9847 175.007C85.8976 174.431 86.6989 173.577 87.7268 172.232C89.2376 170.255 91.6072 169.111 94.085 169.338C96.5629 169.566 98.6847 171.122 99.8104 173.341C100.576 174.85 101.209 175.836 102.002 176.569C103.738 178.174 106.042 179.023 108.405 178.93C110.177 178.86 112.063 177.99 115.836 176.25C119.609 174.511 121.495 173.641 122.699 172.338C124.304 170.601 125.153 168.298 125.06 165.935C125.018 164.856 124.679 163.735 124.028 162.172C123.071 159.876 123.265 157.252 124.701 155.22C126.136 153.187 128.545 152.128 131.03 152.262C132.72 152.354 133.89 152.299 134.921 151.979C137.179 151.277 139.066 149.707 140.167 147.614C140.993 146.044 141.183 143.976 141.562 139.839C141.942 135.701 142.132 133.633 141.606 131.939C140.904 129.681 139.334 127.793 137.241 126.692C136.286 126.19 135.146 125.923 133.467 125.705C130.999 125.386 128.824 123.905 127.782 121.646C126.74 119.386 127.027 116.771 128.385 114.687C129.31 113.268 129.847 112.228 130.086 111.175C130.607 108.868 130.191 106.449 128.929 104.449C127.982 102.949 126.286 101.75 122.893 99.3529C119.5 96.9554 117.803 95.7567 116.073 95.3655C113.766 94.8439 111.347 95.2599 109.347 96.522C108.434 97.0982 107.633 97.9521 106.605 99.2973C105.094 101.274 102.725 102.418 100.247 102.191C97.7691 101.964 95.6473 100.407 94.5216 98.1884C93.7556 96.6786 93.1231 95.6931 92.3304 94.9604C90.5936 93.3554 88.2904 92.506 85.9274 92.5991Z" stroke="#262626" stroke-width="3"/>
</g>
<g clip-path="url(#clip2_499_12440)">
<circle cx="102.076" cy="74.9533" r="6.25" transform="rotate(-55.6181 102.076 74.9533)" stroke="#262626" stroke-width="3"/>
<path d="M87.2208 60.3327C86.5266 60.7855 85.9784 61.5866 84.8821 63.1889C83.7858 64.7911 83.2376 65.5922 83.067 66.4033C82.8394 67.4847 83.0508 68.6121 83.6546 69.5377C83.9302 69.9602 84.3349 70.3286 84.9706 70.7995C85.905 71.4914 86.4561 72.5905 86.3672 73.7497C86.2784 74.909 85.5663 75.9112 84.5374 76.4528C83.8373 76.8213 83.3813 77.1237 83.0445 77.4993C82.3067 78.3221 81.9261 79.4042 81.9862 80.5076C82.0312 81.3352 82.451 82.2105 83.2904 83.961C84.1298 85.7116 84.5495 86.5869 85.1666 87.1402C85.9893 87.8779 87.0714 88.2586 88.1749 88.1985C88.6785 88.1711 89.1998 88.0049 89.9253 87.6898C90.9919 87.2266 92.2195 87.2989 93.1791 87.9556C94.1387 88.6122 94.6506 89.7301 94.6051 90.892C94.5742 91.6825 94.6081 92.2286 94.765 92.7081C95.1086 93.7584 95.8554 94.6291 96.8411 95.1288C97.5803 95.5035 98.5482 95.5777 100.484 95.726C102.42 95.8743 103.388 95.9485 104.175 95.6908C105.226 95.3471 106.096 94.6003 106.596 93.6147C106.824 93.1647 106.941 92.6301 107.031 91.8441C107.163 90.6889 107.839 89.6621 108.888 89.1594C109.936 88.6566 111.16 88.7722 112.144 89.3925C112.813 89.8145 113.303 90.0582 113.796 90.1621C114.878 90.3896 116.005 90.1782 116.931 89.5745C117.625 89.1216 118.173 88.3205 119.269 86.7183C120.366 85.116 120.914 84.3149 121.084 83.5039C121.312 82.4225 121.101 81.295 120.497 80.3694C120.221 79.9469 119.817 79.5785 119.181 79.1076C118.246 78.4157 117.695 77.3167 117.784 76.1574C117.873 74.9981 118.585 73.9957 119.614 73.4541C120.314 73.0857 120.77 72.7832 121.107 72.4077C121.844 71.5849 122.225 70.5028 122.165 69.3994C122.12 68.5718 121.7 67.6965 120.861 65.9459C120.021 64.1954 119.602 63.3201 118.985 62.7668C118.162 62.029 117.08 61.6483 115.976 61.7084C115.473 61.7359 114.951 61.9021 114.226 62.2172C113.159 62.6804 111.932 62.6081 110.972 61.9514C110.013 61.2949 109.501 60.1771 109.546 59.0153C109.577 58.2247 109.543 57.6785 109.386 57.1991C109.043 56.1488 108.296 55.278 107.31 54.7784C106.571 54.4036 105.603 54.3295 103.667 54.1811C101.732 54.0328 100.764 53.9586 99.9761 54.2164C98.9258 54.56 98.0551 55.3068 97.5554 56.2925C97.3274 56.7424 97.2106 57.277 97.1207 58.063C96.9886 59.2182 96.3123 60.245 95.2639 60.7478C94.2155 61.2505 92.9914 61.1349 92.0079 60.5146C91.3388 60.0926 90.8488 59.8489 90.3552 59.745C89.2738 59.5175 88.1463 59.7289 87.2208 60.3327Z" stroke="#262626" stroke-width="3"/>
</g>
<defs>
<clipPath id="clip0_499_12440">
<rect x="92.631" y="154.856" width="140" height="140" rx="5" transform="rotate(-45 92.631 154.856)" fill="white"/>
</clipPath>
<clipPath id="clip1_499_12440">
<rect x="26.1789" y="109.586" width="107" height="107" rx="5" transform="rotate(-24.7568 26.1789 109.586)" fill="white"/>
</clipPath>
<clipPath id="clip2_499_12440">
<rect x="67.3257" y="81.4682" width="50" height="50" rx="5" transform="rotate(-55.6181 67.3257 81.4682)" fill="white"/>
</clipPath>
</defs>
</svg>
