<svg width="194" height="194" viewBox="0 0 194 194" fill="none" xmlns="http://www.w3.org/2000/svg">
<path d="M16.25 119.167H113.75" stroke="black" stroke-width="3" stroke-linecap="round" stroke-linejoin="round"/>
<path d="M16.25 59.5833C16.25 54.4765 16.25 51.923 17.8365 50.3365C19.423 48.75 21.9765 48.75 27.0833 48.75C32.1902 48.75 34.7437 48.75 36.3302 50.3365C37.9167 51.923 37.9167 54.4765 37.9167 59.5833V92.0833C37.9167 97.1902 37.9167 99.7437 36.3302 101.33C34.7437 102.917 32.1902 102.917 27.0833 102.917C21.9765 102.917 19.423 102.917 17.8365 101.33C16.25 99.7437 16.25 97.1902 16.25 92.0833V59.5833Z" stroke="black" stroke-width="3"/>
<path d="M54.1667 37.9168C54.1667 32.8099 54.1667 30.2565 55.7532 28.67C57.3397 27.0835 59.8931 27.0835 65 27.0835C70.1069 27.0835 72.6603 27.0835 74.2468 28.67C75.8334 30.2565 75.8334 32.8099 75.8334 37.9168V92.0835C75.8334 97.1904 75.8334 99.7438 74.2468 101.33C72.6603 102.917 70.1069 102.917 65 102.917C59.8931 102.917 57.3397 102.917 55.7532 101.33C54.1667 99.7438 54.1667 97.1904 54.1667 92.0835V37.9168Z" stroke="black" stroke-width="3"/>
<path d="M92.0833 21.6668C92.0833 16.5599 92.0833 14.0065 93.6698 12.42C95.2563 10.8335 97.8098 10.8335 102.917 10.8335C108.024 10.8335 110.577 10.8335 112.163 12.42C113.75 14.0065 113.75 16.5599 113.75 21.6668V92.0835C113.75 97.1904 113.75 99.7438 112.163 101.33C110.577 102.917 108.024 102.917 102.917 102.917C97.8098 102.917 95.2563 102.917 93.6698 101.33C92.0833 99.7438 92.0833 97.1904 92.0833 92.0835V21.6668Z" stroke="black" stroke-width="3"/>
<path d="M65 114L66 81L67 76L73 69L84 67H105.5L132.5 66L153.5 66.5L171.5 68L179.5 75L182 89V110L181.5 126L181 145.5L175.5 156L162 159.5L153.5 160L145.5 152.5L141 149L140.5 143.5L137 136.5L132.5 133L124 130.5L116.5 131.5L111 136L107 142L106 149L94.5 159.5H88L78.5 158.5L69.5 154L66 147L65 114Z" fill="white"/>
<circle cx="124" cy="147.333" r="17.5" stroke="black" stroke-width="3"/>
<path d="M124 166.35L110.8 179.005C108.91 180.817 107.964 181.723 107.164 182.037C105.34 182.751 103.316 182.14 102.357 180.584C101.936 179.901 101.805 178.67 101.542 176.207C101.394 174.816 101.32 174.121 101.095 173.538C100.592 172.235 99.5338 171.22 98.1739 170.738C97.5664 170.522 96.8411 170.451 95.3906 170.309C92.8215 170.058 91.537 169.932 90.8248 169.528C89.202 168.608 88.5642 166.668 89.3095 164.92C89.6366 164.152 90.5818 163.246 92.4722 161.434L101.095 153.167L107 147.5" stroke="black" stroke-width="3"/>
<path d="M124 166.349L137.2 179.004C139.09 180.817 140.036 181.723 140.836 182.037C142.66 182.751 144.684 182.14 145.643 180.584C146.064 179.901 146.195 178.67 146.458 176.207C146.606 174.816 146.68 174.121 146.905 173.538C147.408 172.234 148.466 171.22 149.826 170.738C150.434 170.522 151.159 170.451 152.609 170.309C155.178 170.057 156.463 169.931 157.175 169.528C158.798 168.608 159.436 166.668 158.69 164.919C158.363 164.152 157.418 163.246 155.528 161.433L146.905 153.167L141.5 147.762" stroke="black" stroke-width="3"/>
<path d="M153.5 159C165.006 158.878 172.95 158.132 177.208 153.874C182.333 148.749 182.333 140.499 182.333 124V100.667C182.333 84.1673 182.333 75.9178 177.208 70.7921C172.082 65.6665 163.833 65.6665 147.333 65.6665L100.667 65.6665C84.1675 65.6665 75.9179 65.6665 70.7923 70.7921C65.6667 75.9178 65.6667 84.1673 65.6667 100.667L65.6667 124C65.6667 140.499 65.6667 148.749 70.7923 153.874C75.2746 158.356 82.8125 158.929 95.5002 159" stroke="black" stroke-width="3"/>
<path d="M106.5 89H141.5" stroke="black" stroke-width="3" stroke-linecap="round"/>
<path d="M94.8333 109.417H153.167" stroke="black" stroke-width="3" stroke-linecap="round"/>
</svg>
