<svg width="328" height="285" viewBox="0 0 328 285" fill="none" xmlns="http://www.w3.org/2000/svg">
<path d="M10.0473 162.518C22.4017 180.411 45.3181 189.896 66.6455 185.938C79.2317 183.707 91.8541 176.126 99.851 166.118C101.971 163.366 104.026 161.112 104.448 160.965C104.765 160.855 109.455 162.787 114.576 165.28L124.07 169.814L121.341 180.012C118.341 191.133 117.787 200.102 119.252 212.165C120.483 222.531 128.083 241.717 134.054 249.727C151.75 273.476 179.728 286.305 208.778 283.819C217.038 283.089 220.419 282.271 231.528 277.825C245.977 272.102 252.318 267.886 262.705 256.93C269.954 249.197 280.428 228.605 282.51 217.564C288.775 185.86 274.353 150.42 248.261 133.141L242.451 129.345L247.305 119.478L252.016 109.542L257.546 110.826C283.812 117.015 310.259 104.639 321.682 80.9893C326.43 71.1589 328.196 62.9561 327.534 52.8675C326.247 32.7962 314.388 14.9687 296.249 5.96137C268.362 -7.96716 234.692 3.35595 221.274 31.1373C214.048 46.0965 213.325 58.326 218.869 74.3113C223.129 86.5914 228.42 94.0067 237.773 101.199L242.233 104.515L237.586 113.954C235.04 119.226 232.553 123.646 232.131 123.793C231.603 123.976 228.483 123.16 225.005 121.995C216.984 119.322 203.571 117.807 194.004 118.516C182.565 119.282 164.275 125.863 154.787 132.594C146.523 138.425 137.489 147.488 132.429 155.055L129.066 160.017L119.108 155.169L109.008 150.251L110.664 144.459C114.246 131.949 111.427 113.595 104.13 101.42C95.8184 87.3434 79.2846 76.8303 62.4718 74.7159C51.8537 73.4177 38.5654 76.0108 28.9161 81.2553C12.2513 90.4751 0.86904 109.13 0.026802 128.516C-0.426548 137.094 4.93483 155.278 10.0473 162.518ZM10.8468 129.033C11.2446 116.205 17.4378 103.382 27.3299 95.0887C33.7626 89.7738 45.8255 85.3524 54.7962 84.9686C67.8277 84.3622 82.544 90.999 91.0524 101.212C96.5456 107.846 102.049 123.371 101.761 131.062C101.198 144.777 95.3532 157.241 85.741 165.319C77.6658 172.034 63.8409 176.83 54.3608 176.085C40.0718 175.112 28.7189 168.969 19.7379 157.733C14.0978 150.676 10.4486 139.133 10.8468 129.033ZM129.984 211.407C127.614 189.577 131.926 173.375 144.433 156.94C153.985 144.257 164.74 137.087 181.602 132.187C198.428 127.181 211.795 127.882 228.562 134.637C245.862 141.564 258.785 154.278 267.014 172.89C275.858 192.594 275.617 212.009 266.332 231.596C261.827 241.105 252.459 254.317 249.609 255.305C249.081 255.489 247.962 256.351 247.127 257.352C244.654 260.108 230.655 267.81 223.69 270.226C217.674 272.312 204.973 273.872 196.347 273.543C188.569 273.276 176.363 269.445 167.254 264.658C156.365 258.829 147.278 250.358 140.89 240.121C138.65 236.391 135.947 232.347 135.011 231.012C132.854 228.202 131.068 221.35 129.984 211.407ZM226.08 52.8342C227.973 32.7273 239.801 18.425 259.196 12.6463C275.811 7.71342 290.812 11.761 304.125 24.5774C309.315 29.6559 315.231 41.5985 316.471 49.9449C318.551 63.0995 313.275 78.5682 303.301 88.6696C297.791 94.2575 296.914 94.7987 285.833 98.6423C274.858 102.449 273.834 102.567 266.717 101.478C252.731 99.3317 241.443 92.6919 233.847 82.0433C228.877 74.8723 225.31 61.5218 226.08 52.8342Z" fill="url(#paint0_linear_499_12083)" fill-opacity="0.26"/>
<defs>
<linearGradient id="paint0_linear_499_12083" x1="287.367" y1="12.9531" x2="234.867" y2="212.453" gradientUnits="userSpaceOnUse">
<stop stop-color="white"/>
<stop offset="1" stop-color="#262626"/>
</linearGradient>
</defs>
</svg>
