<svg width="185" height="161" viewBox="0 0 185 161" fill="none" xmlns="http://www.w3.org/2000/svg">
<path d="M5.68143 91.6243C12.6511 101.741 25.5625 107.116 37.5693 104.895C44.6552 103.644 51.7577 99.3702 56.2536 93.7219C57.4452 92.1691 58.6011 90.8968 58.8387 90.8144C59.0169 90.7526 61.6591 91.8469 64.5447 93.259L69.8943 95.8274L68.3648 101.586C66.6835 107.867 66.3778 112.933 67.2114 119.749C67.912 125.606 72.2058 136.45 75.5736 140.979C85.5555 154.408 101.319 161.675 117.676 160.291C122.327 159.885 124.23 159.426 130.482 156.922C138.615 153.699 142.182 151.322 148.024 145.14C152.1 140.777 157.983 129.151 159.148 122.915C162.653 105.009 154.507 84.978 139.802 75.1984L136.527 73.0496L139.253 67.479L141.899 61.8692L145.014 62.5986C159.809 66.1135 174.693 59.1409 181.109 45.7888C183.775 40.2388 184.764 35.6061 184.384 29.9063C183.645 18.5666 176.954 8.48703 166.733 3.38566C151.02 -4.50274 132.068 1.86995 124.532 17.5547C120.474 26.0004 120.075 32.9086 123.209 41.943C125.616 48.8833 128.601 53.0762 133.873 57.1462L136.387 59.0223L133.777 64.3517C132.347 67.3277 130.95 69.8232 130.712 69.9056C130.415 70.0086 128.657 69.5459 126.698 68.885C122.179 67.369 114.625 66.5037 109.238 66.8976C102.797 67.322 92.5029 71.0268 87.1646 74.8223C82.5155 78.1107 77.4348 83.2245 74.5907 87.4954L72.7005 90.296L67.0897 87.5502L61.3988 84.7651L62.3271 81.4938C64.3354 74.4295 62.7346 64.059 58.6168 57.1757C53.9265 49.2175 44.6086 43.2666 35.1395 42.0602C29.1594 41.3193 21.6784 42.7747 16.2486 45.7306C6.87102 50.9272 0.474843 61.4574 0.0144254 72.4088C-0.234726 77.2543 2.79736 87.5304 5.68143 91.6243ZM6.10766 72.7083C6.32251 65.4616 9.80083 58.2225 15.3653 53.5442C18.9838 50.5463 25.7734 48.0572 30.8246 47.8467C38.1624 47.5134 46.4541 51.2732 51.2525 57.049C54.3506 60.8004 57.4607 69.5749 57.3039 73.9192C56.9967 81.667 53.7145 88.7041 48.3075 93.2608C43.7651 97.0483 35.9835 99.7475 30.6446 99.3204C22.5976 98.7602 16.2003 95.2818 11.1349 88.9283C7.95383 84.9375 5.89069 78.414 6.10766 72.7083ZM73.2546 119.328C71.9044 106.994 74.3207 97.8445 81.3516 88.5688C86.7215 81.4108 92.7725 77.3681 102.265 74.6118C111.736 71.7958 119.263 72.2011 128.71 76.0294C138.457 79.9547 145.743 87.1466 150.39 97.6668C155.385 108.804 155.263 119.772 150.048 130.831C147.518 136.199 142.252 143.656 140.648 144.213C140.351 144.316 139.721 144.802 139.252 145.367C137.861 146.922 129.984 151.263 126.063 152.623C122.677 153.798 115.526 154.669 110.668 154.478C106.289 154.321 99.4124 152.148 94.2797 149.438C88.1436 146.137 83.0209 141.345 79.4162 135.557C78.1523 133.448 76.6273 131.162 76.0991 130.407C74.8825 128.818 73.8721 124.946 73.2546 119.328ZM127.254 29.8152C128.305 18.4577 134.956 10.3865 145.873 7.13572C155.226 4.36087 163.676 6.65814 171.181 13.9079C174.108 16.7805 177.448 23.5314 178.152 28.2473C179.332 35.6802 176.373 44.4151 170.763 50.1145C167.665 53.2673 167.171 53.5724 160.934 55.7359C154.757 57.8787 154.18 57.9445 150.172 57.324C142.295 56.1017 135.933 52.3427 131.648 46.3217C128.845 42.2671 126.827 34.7225 127.254 29.8152Z" fill="url(#paint0_linear_537_2196)" fill-opacity="0.26"/>
<defs>
<linearGradient id="paint0_linear_537_2196" x1="163.918" y1="47.7189" x2="61.836" y2="72.1073" gradientUnits="userSpaceOnUse">
<stop stop-color="white"/>
<stop offset="1" stop-color="#262626"/>
</linearGradient>
</defs>
</svg>
