<svg width="290" height="322" viewBox="0 0 290 322" fill="none" xmlns="http://www.w3.org/2000/svg">
<path d="M182.667 308.517C199.535 294.797 207.194 271.207 201.575 250.256C198.364 237.884 189.816 225.895 179.212 218.708C176.302 216.81 173.893 214.938 173.714 214.529C173.58 214.222 175.137 209.395 177.221 204.094L180.997 194.273L191.377 196.194C202.7 198.312 211.684 198.161 223.595 195.755C233.832 193.715 252.363 184.632 259.88 178.052C282.168 158.548 292.763 129.649 288.006 100.884C286.63 92.7072 285.55 89.4 280.247 78.6744C273.408 64.719 268.708 58.7282 256.97 49.2322C248.693 42.6119 227.342 33.7858 216.173 32.5761C184.075 28.8175 149.875 45.9739 134.696 73.3414L131.367 79.4308L121.15 75.366L110.875 71.4484L111.721 65.8353C115.831 39.1651 101.419 13.77 76.9458 4.23706C66.7733 0.274589 58.4572 -0.842318 48.4517 0.608776C28.5431 3.46606 11.7007 16.6867 4.1439 35.4769C-7.55443 64.3698 6.37471 97.0478 35.123 108.246C50.6028 114.276 62.8515 114.038 78.3526 107.257C90.2607 102.047 97.2382 96.1904 103.675 86.3028L106.631 81.596L116.406 85.4885C121.86 87.6133 126.462 89.7455 126.641 90.1548C126.865 90.6665 126.297 93.8412 125.408 97.4002C123.372 105.606 122.914 119.096 124.372 128.578C126.032 139.922 134.027 157.639 141.482 166.571C147.943 174.351 157.687 182.646 165.628 187.098L170.838 190.061L166.786 200.368L162.676 210.823L156.771 209.627C144.019 207.037 125.943 211.287 114.378 219.516C100.996 228.906 91.8122 246.214 91.023 263.141C90.5618 273.828 94.1891 286.872 100.174 296.08C110.673 311.97 130.163 321.854 149.556 321.173C158.143 320.953 175.85 314.182 182.667 308.517ZM149.222 310.346C136.402 310.956 123.134 305.787 114.089 296.576C108.286 290.58 102.933 278.901 101.846 269.989C100.22 257.045 105.682 241.853 115.196 232.57C121.379 226.573 136.424 219.869 144.114 219.553C157.831 219.039 170.715 223.888 179.522 232.837C186.85 240.36 192.715 253.766 192.717 263.276C192.867 277.597 187.633 289.397 177.137 299.231C170.544 305.408 159.322 309.951 149.222 310.346ZM221.998 185.115C200.421 189.19 183.931 186.162 166.565 174.983C153.172 166.455 145.181 156.296 138.973 139.869C132.663 123.488 132.313 110.108 137.732 92.862C143.281 75.0723 154.942 61.192 172.852 51.5282C191.8 41.1657 211.175 39.8833 231.43 47.6035C241.263 51.3488 255.169 59.6521 256.378 62.4153C256.602 62.9269 257.55 63.9754 258.613 64.7293C261.554 66.9785 270.331 80.3302 273.286 87.0845C275.837 92.9177 278.388 105.457 278.737 114.083C279.081 121.858 276.219 134.327 272.162 143.783C267.204 155.096 259.472 164.819 249.768 171.99C246.225 174.516 242.406 177.528 241.148 178.566C238.516 180.936 231.825 183.254 221.998 185.115ZM56.376 101.753C36.1826 101.443 20.9967 90.7729 13.7144 71.8906C7.49357 55.7139 10.3521 40.4421 22.0848 26.165C26.7405 20.5924 38.1824 13.758 46.4058 11.8673C59.3567 8.76192 75.1916 12.8076 86.0442 21.9591C92.0471 27.0141 92.6553 27.8453 97.3563 38.5908C102.012 49.2339 102.21 50.2447 101.682 57.4253C100.64 71.5368 94.906 83.3114 84.8859 91.7185C78.1269 97.2358 65.0973 101.839 56.376 101.753Z" fill="url(#paint0_linear_499_12084)" fill-opacity="0.26"/>
<defs>
<linearGradient id="paint0_linear_499_12084" x1="11.8107" y1="43.7824" x2="214.814" y2="80.4727" gradientUnits="userSpaceOnUse">
<stop stop-color="white"/>
<stop offset="1" stop-color="#262626"/>
</linearGradient>
</defs>
</svg>
