<svg width="287" height="261" viewBox="0 0 287 261" fill="none" xmlns="http://www.w3.org/2000/svg">
<path d="M86.3018 144.175C85.5448 146.172 84.8707 148.018 84.2796 149.713C83.6884 151.408 83.0985 153.15 82.5099 154.939C79.5495 163.509 76.9861 172.177 74.8196 180.942C72.6793 189.379 71.2178 197.974 70.4491 206.644L70.3781 207.757C70.1311 212.778 70.119 217.776 70.3415 222.749C70.6019 227.982 71.7012 233.139 73.5974 238.024L73.4857 237.685C74.5797 241.379 76.7478 244.448 79.5925 246.648L79.6044 246.658C82.3528 248.562 85.7744 249.564 89.3769 249.246C91.247 249.251 93.1165 248.954 94.8926 248.369L94.7865 248.402L99.8043 246.734C104.502 244.826 108.514 242.54 112.186 239.83L111.941 239.997C115.605 237.313 119.203 234.443 122.734 231.386C123.534 230.752 124.421 230.233 125.366 229.845L125.451 229.814C126.465 229.419 127.579 229.358 128.63 229.638L128.596 229.631C129.578 229.848 130.485 230.317 131.229 230.993C131.973 231.668 132.528 232.525 132.838 233.481L132.852 233.512C133.203 234.425 133.265 235.423 133.03 236.373C132.795 237.322 132.276 238.177 131.54 238.823L131.531 238.834C126.419 243.619 120.579 248.239 114.348 252.362L113.647 252.785C107.598 256.759 100.263 259.531 92.2681 260.467L92.2356 260.471C86.3441 261.442 80.298 260.352 75.1188 257.384L75.2002 257.43C70.164 254.418 66.1894 249.917 63.8261 244.549L63.7518 244.36C61.6019 239.994 60.1467 235.321 59.4386 230.507L59.4285 230.409C58.7061 225.527 58.4007 220.592 58.5153 215.658L58.5168 216.095C58.7775 200.73 60.9128 186.549 64.7008 172.996L64.4187 174.185C68.2925 159.867 73.0778 145.811 78.7454 132.102L78.0085 134.082C78.4342 133.066 78.6164 131.964 78.5407 130.865C78.4104 129.773 78.0957 128.7 77.6122 127.712L77.6406 127.775C75.4375 123.204 73.3279 118.619 71.3119 114.021L65.2756 100.237C65.2164 99.8766 65.085 99.5317 64.8894 99.223C64.6938 98.9143 64.4379 98.6482 64.1371 98.4404C63.4296 98.1901 62.6531 98.2196 61.9665 98.5228L61.9871 98.5097C55.6803 100.701 49.488 103.118 43.4103 105.76C37.2024 108.454 31.301 111.804 25.8073 115.754L26.2377 115.468C24.0989 117.041 22.078 118.767 20.1912 120.634L20.2808 120.549C18.4118 122.414 16.6411 124.376 14.9759 126.425C12.6024 129.252 11.3359 132.843 11.4115 136.531L11.4597 136.997C11.8461 140.731 13.4915 144.04 15.9383 146.522L15.9133 146.492C18.2851 149.448 21.0121 151.886 24.0943 153.807L24.1758 153.853C27.255 155.744 30.4132 157.482 33.6503 159.065C34.8505 159.517 35.9568 159.979 36.9692 160.45L39.9955 161.865C41.4388 162.517 42.6069 163.655 43.2956 165.08L43.3109 165.122C43.6209 165.779 43.7804 166.498 43.778 167.225C43.7755 167.952 43.6112 168.669 43.2968 169.324L43.3054 169.302C43.0566 170.029 42.6501 170.693 42.1148 171.246C41.5795 171.799 40.9287 172.227 40.2088 172.499L40.1775 172.514C38.662 173.052 37.0011 173.014 35.5125 172.405L35.5472 172.424C30.8796 170.753 26.3695 168.671 22.0701 166.204L22.3372 166.351C18.1029 163.959 14.1492 161.102 10.5496 157.834L10.4887 157.774C8.30846 155.71 6.3661 153.408 4.69787 150.912L4.56713 150.707C2.96537 148.253 1.72631 145.581 0.888223 142.773L0.836681 142.592C-0.128669 138.996 -0.260262 135.227 0.45191 131.571L0.426493 131.749C1.15684 128.11 2.52394 124.628 4.46495 121.463L4.41862 121.544C6.43274 118.222 8.78766 115.265 11.4834 112.674L11.5731 112.588C14.1701 110.065 17.1339 107.702 20.3263 105.643L20.6357 105.458C26.0351 101.778 31.7402 98.5666 37.6884 95.86L38.4968 95.5248C44.6219 92.7759 50.9501 90.2977 57.4816 88.0902C57.8993 87.8938 58.3798 87.7055 58.9233 87.5253L59.0089 87.5055C59.6238 87.3106 60.1281 87.1053 60.6194 86.8794L60.5253 86.9219C59.9655 85.2513 59.4708 83.5739 59.041 81.8898C58.6113 80.2057 58.1959 78.52 57.7951 76.8329C55.9415 70.0001 54.5067 63.0606 53.4988 56.0531L53.4487 55.6754C52.4019 48.422 52.5074 41.0488 53.7615 33.8278L53.6927 34.3273C53.991 31.1784 54.5983 28.3695 55.4921 25.6842L55.4193 25.9324C56.3225 23.1642 57.6181 20.5396 59.2666 18.1386L59.2386 18.1852C62.1277 13.8348 66.2751 10.4671 71.128 8.53096L71.3077 8.4686C76.3676 6.68514 81.7928 6.19149 87.0915 7.03239L86.8583 7.00181C92.449 7.74081 97.8869 9.36048 102.97 11.8005L102.729 11.6942C108.271 14.3591 113.013 17.0083 117.584 19.9051L117.257 19.7092C118.444 20.6037 119.294 21.9381 119.564 23.4856L119.566 23.5072L119.613 23.8525C119.685 24.5363 119.615 25.2277 119.408 25.8835C119.2 26.5392 118.86 27.1454 118.408 27.664C117.644 28.853 116.448 29.6987 115.072 30.0223L115.039 30.0257C113.577 30.3604 112.042 30.1021 110.771 29.3076L110.783 29.3173C108.343 28.0308 105.997 26.7382 103.746 25.4395C101.597 24.1857 99.3878 23.0378 97.1265 21.9999L96.7488 21.842C94.2095 20.6114 91.5447 19.6583 88.8005 18.9994L88.5099 18.9419C85.5988 18.2817 82.5987 18.1042 79.6297 18.4166L79.3589 18.4447L79.218 18.4592C76.8454 18.7047 74.6632 19.5213 72.7967 20.7428L72.8691 20.7025C70.944 21.994 69.3972 23.7739 68.3876 25.8596L68.3607 25.9171C66.7485 28.4627 65.6826 31.3149 65.2306 34.2931L65.2137 34.448C64.7529 37.3606 64.4901 40.301 64.4271 43.2489L64.4316 43.6095C64.3587 50.3034 65.0134 56.9853 66.384 63.5378L66.3112 63.1515C67.8402 70.5203 69.5806 76.9701 71.6446 83.2661L71.3036 82.087L71.3137 82.1844C71.3383 82.4114 71.4137 82.6299 71.5342 82.8238C71.6547 83.0178 71.8173 83.1822 72.01 83.3049C72.4147 83.5474 72.8774 83.6454 73.3982 83.5988L73.4849 83.5899C78.7491 82.469 83.9278 81.4044 89.0211 80.396C94.1144 79.3876 99.2054 78.4269 104.294 77.5138C105.286 77.2557 106.237 76.859 107.118 76.3355L107.055 76.3638C107.883 75.7703 108.583 75.0171 109.114 74.1487L109.123 74.1259C114.884 64.9254 121.116 56.0279 127.794 47.4687L127.717 47.5751C134.266 39.2255 141.482 31.421 149.294 24.2385L149.766 23.8178C153.936 19.8894 158.325 16.1991 162.912 12.7643L163.576 12.3018C168.302 8.78842 173.449 5.87804 178.896 3.63814L179.392 3.45556C182.801 1.96546 186.388 0.917871 190.063 0.338366L190.172 0.327156C194.058 -0.256969 198.022 -0.057003 201.829 0.915239L201.616 0.871589C206.135 1.79342 210.081 3.94522 213.177 6.98361L213.214 7.02354C216.203 10.0948 218.671 13.8328 220.35 18.0023L220.429 18.2348C222.33 22.4252 223.682 27.3399 224.218 32.5248L224.232 32.6547C224.757 37.735 224.972 42.7673 224.874 47.7516L224.868 47.1615C224.817 48.5087 224.757 49.795 224.687 51.0203C224.603 52.5388 224.432 53.8474 224.193 55.1412L224.224 54.9083C224.226 55.6269 224.07 56.3372 223.766 56.9888C223.463 57.6403 223.019 58.2172 222.468 58.6784L222.447 58.6915C221.319 59.6598 219.86 60.1557 218.375 60.0756L218.407 60.0723C217.682 60.0797 216.962 59.9422 216.291 59.6678C215.619 59.3935 215.009 58.9879 214.497 58.4748L214.485 58.4651C213.938 57.9189 213.515 57.2628 213.242 56.5403C212.969 55.8178 212.853 55.0454 212.902 54.2746L212.905 54.3071C212.857 52.0073 212.901 49.6505 213.038 47.2367C213.179 45.0998 213.135 42.6646 212.89 40.1955C212.781 37.3106 212.479 34.4362 211.989 31.5911L212.02 31.7849C211.511 28.8371 210.801 25.9279 209.893 23.0776L210.013 23.5027C209.455 21.1989 208.401 19.0443 206.925 17.1886C205.449 15.333 203.587 13.8209 201.466 12.7574L201.397 12.7209C196.703 10.9154 191.49 11.0036 186.859 12.967L186.996 12.9199C182.731 14.2989 178.661 16.2203 174.886 18.6367L175.164 18.4657C171.554 20.7574 167.967 23.24 164.404 25.9135C157.502 31.633 151.083 37.9103 145.212 44.6818L145.28 44.5982C139.445 51.3505 133.921 58.3586 128.709 65.6226C127.686 66.8809 126.672 68.233 125.668 69.6789C124.664 71.1247 123.745 72.4671 122.909 73.7059L122.914 73.7492C122.932 73.8886 122.896 74.0295 122.812 74.1427C122.706 74.3707 122.683 74.6282 122.745 74.8717L125.886 74.5357C142.115 73.0644 157.953 72.5744 173.611 72.9892L171.573 72.9812C188.789 73.4209 204.286 75.1433 219.405 78.0754L217.335 77.7535C225.829 79.2049 232.847 80.8857 239.729 82.9524L238.469 82.6234C246.398 84.9647 253.175 87.6003 259.674 90.7242L259.032 90.4406C262.778 92.3613 266.034 94.3001 269.167 96.4266L269.013 96.3221C272.263 98.524 275.199 100.966 277.908 103.651L278.005 103.75C282.799 108.385 286.072 114.72 286.818 121.929L286.907 122.894L286.902 122.851C287.072 130.053 284.506 137.054 279.721 142.444L279.701 142.468C276.428 146.501 272.624 150.074 268.394 153.09L268.128 153.271C263.946 156.228 259.538 158.853 254.946 161.123L254.265 161.423C252.97 161.951 251.526 161.992 250.204 161.537L250.237 161.544C249.544 161.322 248.906 160.959 248.362 160.476C247.818 159.994 247.381 159.403 247.078 158.742L247.064 158.711C246.703 158.085 246.48 157.39 246.407 156.671C246.335 155.953 246.415 155.227 246.644 154.542L246.636 154.576C247.074 153.078 248.06 151.801 249.398 150.997L249.429 150.983C251.593 149.606 253.81 148.272 256.078 146.98C258.35 145.691 260.516 144.223 262.555 142.59L262.372 142.729C264.252 141.32 265.848 139.919 267.335 138.408L267.264 138.47C268.745 136.975 270.183 135.386 271.578 133.703C274.007 130.826 275.429 127.112 275.38 123.146L275.365 122.994C274.957 119.054 273.195 115.571 270.583 112.975L270.608 113.005C268.457 110.56 265.992 108.409 263.278 106.609L263.207 106.561C260.529 104.783 257.723 103.205 254.813 101.839L254.491 101.698C247.516 98.1594 240.198 95.3389 232.651 93.2796L231.821 93.0919C224.576 91.0897 217.227 89.4835 209.806 88.2804L208.087 88.0645C199.687 86.8184 191.277 85.8652 182.857 85.2047C174.684 84.5229 166.477 84.3273 158.279 84.6188L157.571 84.6484C150.872 84.955 144.133 85.3313 137.353 85.7775C130.574 86.2237 123.843 86.6795 117.16 87.1448L117.052 87.156C116.196 87.2497 115.361 87.4877 114.584 87.8599L114.636 87.8326C113.916 88.1829 113.363 88.8021 113.096 89.5565L113.087 89.5793L102.821 108.999C99.4566 115.496 96.1857 121.983 93.0088 128.46C92.652 128.93 92.4576 129.503 92.455 130.093L92.4562 130.104C92.4084 130.745 92.5239 131.388 92.7919 131.973L92.7777 131.941C97.0077 139.381 101.372 146.708 105.871 153.923C110.369 161.137 115.182 168.177 120.309 175.042C125.436 181.908 130.785 188.557 136.356 194.989C141.928 201.422 147.803 207.583 153.982 213.471C159.417 218.587 164.843 223.189 170.481 227.518L170.587 227.595C176.119 231.847 182.113 235.592 188.45 238.733L188.921 238.946C191.68 240.422 194.805 241.74 198.043 242.762L198.415 242.865C201.439 243.832 204.881 244.297 208.422 244.127L208.498 244.119C211.47 244.071 214.363 243.155 216.822 241.486L216.75 241.537C219.071 239.842 220.854 237.601 221.946 235.026L221.981 234.946C223.168 232.547 224.023 229.811 224.429 226.958L224.453 226.769C224.833 223.964 225.056 221.139 225.122 218.309L225.125 217.915C224.935 208.431 223.54 199.01 220.975 189.877L221.141 190.527C218.683 181.657 215.851 172.877 212.645 164.187C209.036 155.341 205.068 146.726 200.74 138.341C196.412 129.956 191.808 121.687 186.928 113.535C186.46 112.928 186.074 112.261 185.781 111.553L185.752 111.49C185.391 110.835 185.266 110.075 185.398 109.339L185.394 109.296C185.257 107.975 185.676 106.728 186.477 105.792C187.289 104.767 188.42 104.042 189.691 103.731L189.723 103.728C190.888 103.412 192.125 103.491 193.24 103.954L193.206 103.947C194.433 104.425 195.445 105.331 196.054 106.497L196.069 106.528C197.712 109.429 199.458 112.37 201.307 115.351C203.156 118.333 204.91 121.353 206.57 124.412C211.567 133.691 216.204 143.196 220.481 152.928C224.235 161.16 227.885 171.253 230.785 181.707L231.088 182.945C232.761 189.062 234.36 196.577 235.57 204.252L235.65 204.813C236.815 212.384 236.892 220.083 235.88 227.676L235.933 227.124C235.708 228.686 235.395 230.32 234.994 232.024C234.575 233.791 234.046 235.53 233.409 237.231L233.493 236.982C231.579 243.143 227.678 248.305 222.481 251.731L222.337 251.823C219.057 253.88 215.098 255.307 210.808 255.751C208.409 255.992 206.071 255.935 203.793 255.58L203.982 255.604C198.116 255.007 192.815 253.51 187.926 251.237L188.167 251.343C183.064 248.984 178.119 246.298 173.362 243.302L173.655 243.48C165.123 238.107 157.107 231.955 149.711 225.105L149.529 224.938C142.084 218.028 134.991 210.794 128.252 203.234C121.004 195.06 114.2 186.503 107.872 177.598L106.886 176.114C100.241 166.715 93.9921 156.942 88.1389 146.797L87.4471 145.72L86.3018 144.175ZM75.4107 94.5826L84.9588 117.226C87.3399 112.37 89.6934 107.707 92.0194 103.236C94.3455 98.7647 96.803 94.1889 99.392 89.5084L75.4107 94.5826ZM146.361 147.753L146.166 147.773C141.616 148.244 137.296 146.82 134.018 144.129C132.379 142.902 131.012 141.35 130.004 139.569C128.997 137.789 128.369 135.818 128.162 133.783L128.091 132.883L128.069 132.677C127.605 128.185 129.049 123.944 131.739 120.733C133.066 119.045 134.719 117.641 136.6 116.604C138.482 115.567 140.552 114.919 142.689 114.699L142.949 114.672L143.133 114.653C147.684 114.182 152.003 115.606 155.282 118.297C158.655 120.847 160.995 124.73 161.465 129.265L161.487 129.482L161.507 129.677C161.975 134.201 160.48 138.48 157.711 141.666L157.701 141.678C156.341 143.379 154.654 144.79 152.74 145.83C150.826 146.87 148.724 147.517 146.556 147.733L146.393 147.749L146.404 147.748L146.361 147.753Z" fill="url(#paint0_linear_499_12861)" fill-opacity="0.26"/>
<defs>
<linearGradient id="paint0_linear_499_12861" x1="285.972" y1="180.03" x2="249.834" y2="-35.953" gradientUnits="userSpaceOnUse">
<stop stop-color="white"/>
<stop offset="1" stop-color="#565656"/>
</linearGradient>
</defs>
</svg>
