<svg width="161" height="147" viewBox="0 0 161 147" fill="none" xmlns="http://www.w3.org/2000/svg">
<path d="M48.4303 80.9075C48.0055 82.0279 47.6272 83.0637 47.2955 84.0149C46.9638 84.966 46.6328 85.9437 46.3024 86.9479C44.6411 91.7572 43.2026 96.6211 41.9868 101.54C40.7857 106.275 39.9656 111.098 39.5342 115.963L39.4943 116.588C39.3558 119.406 39.3489 122.21 39.4738 125.001C39.62 127.938 40.2368 130.832 41.3009 133.573L41.2383 133.383C41.8522 135.456 43.0689 137.178 44.6652 138.413L44.672 138.418C46.2143 139.486 48.1344 140.049 50.156 139.871C51.2055 139.873 52.2546 139.707 53.2513 139.378L53.1918 139.397L56.0076 138.461C58.6436 137.39 60.8951 136.107 62.956 134.586L62.8183 134.68C64.8746 133.174 66.8935 131.563 68.8749 129.848C69.3244 129.492 69.8217 129.201 70.3524 128.983L70.3998 128.966C70.9689 128.744 71.5938 128.71 72.1839 128.867L72.165 128.863C72.7157 128.985 73.225 129.248 73.6425 129.627C74.06 130.006 74.3713 130.487 74.5454 131.023L74.5534 131.041C74.7499 131.553 74.7846 132.114 74.653 132.646C74.5214 133.179 74.2297 133.659 73.8171 134.021L73.8116 134.028C70.9432 136.713 67.6659 139.305 64.1692 141.619L63.7759 141.856C60.3811 144.086 56.2652 145.642 51.7785 146.168L51.7602 146.169C48.4541 146.715 45.0611 146.103 42.1547 144.437L42.2004 144.463C39.3742 142.773 37.1438 140.247 35.8176 137.235L35.7758 137.128C34.5694 134.679 33.7528 132.056 33.3554 129.355L33.3497 129.3C32.9444 126.56 32.7729 123.791 32.8373 121.022L32.8381 121.267C32.9844 112.644 34.1827 104.686 36.3084 97.0807L36.1501 97.7479C38.324 89.7131 41.0094 81.8252 44.1899 74.1324L43.7764 75.2435C44.0152 74.6732 44.1175 74.055 44.075 73.4383C44.0019 72.8254 43.8253 72.2232 43.554 71.6687L43.5699 71.7039C42.3336 69.1387 41.1497 66.5659 40.0184 63.9857L36.631 56.2505C36.5977 56.0482 36.524 55.8546 36.4142 55.6814C36.3045 55.5082 36.1609 55.3588 35.9921 55.2422C35.595 55.1018 35.1593 55.1183 34.774 55.2884L34.7855 55.2811C31.2463 56.5109 27.7714 57.8671 24.3607 59.3497C20.877 60.8613 17.5653 62.7415 14.4824 64.958L14.7239 64.7979C13.5236 65.6803 12.3896 66.6492 11.3307 67.6969L11.3811 67.6487C10.3322 68.6958 9.33853 69.7966 8.40404 70.9467C7.07211 72.5328 6.36139 74.5479 6.40381 76.6178L6.43084 76.879C6.64768 78.9746 7.57105 80.8315 8.94414 82.2243L8.9301 82.2073C10.2611 83.8664 11.7914 85.2347 13.5211 86.3123L13.5668 86.3383C15.2948 87.3997 17.0671 88.3746 18.8837 89.2631C19.5572 89.5167 20.178 89.7758 20.7461 90.0404L22.4444 90.8347C23.2544 91.2003 23.9099 91.8388 24.2963 92.6384L24.3049 92.6621C24.4789 93.0311 24.5684 93.4342 24.5671 93.8421C24.5657 94.2501 24.4734 94.6526 24.297 95.0205L24.3018 95.0077C24.1622 95.4162 23.9341 95.7888 23.6337 96.099C23.3333 96.4092 22.9681 96.6493 22.5641 96.8022L22.5465 96.8101C21.6961 97.1125 20.764 97.0909 19.9287 96.7495L19.9482 96.7597C17.3288 95.8219 14.7979 94.6538 12.3852 93.2692L12.5351 93.3519C10.1589 92.0097 7.94016 90.4065 5.92016 88.5722L5.88599 88.5389C4.66247 87.3804 3.57246 86.0887 2.6363 84.6881L2.56293 84.5729C1.66406 83.1957 0.968735 81.6961 0.49842 80.1205L0.469495 80.0191C-0.0722346 78.0008 -0.146081 75.8857 0.253572 73.8344L0.239308 73.9341C0.649161 71.8919 1.41634 69.9379 2.50559 68.1618L2.47959 68.2075C3.60986 66.3429 4.93138 64.6835 6.44416 63.2295L6.49448 63.1813C7.95184 61.7658 9.61507 60.4395 11.4066 59.2841L11.5802 59.1802C14.6102 57.115 17.8118 55.313 21.1497 53.7942L21.6034 53.606C25.0406 52.0634 28.5919 50.6727 32.2572 49.4339C32.4916 49.3237 32.7613 49.2181 33.0662 49.1169L33.1142 49.1058C33.4593 48.9964 33.7424 48.8812 34.0181 48.7545L33.9652 48.7783C33.6511 47.8408 33.3734 46.8995 33.1323 45.9544C32.8911 45.0093 32.658 44.0634 32.4331 43.1166C31.3929 39.2822 30.5877 35.388 30.0221 31.4555L29.994 31.2436C29.4066 27.1731 29.4658 23.0355 30.1695 18.9833L30.1309 19.2635C30.2984 17.4965 30.6392 15.9202 31.1407 14.4133L31.0998 14.5526C31.6067 12.9991 32.3338 11.5263 33.2589 10.1789L33.2432 10.2051C34.8645 7.76368 37.1919 5.87382 39.9152 4.78731L40.016 4.75232C42.8555 3.75149 45.9 3.47446 48.8735 3.94636L48.7427 3.9292C51.88 4.3439 54.9316 5.25282 57.7839 6.62213L57.6487 6.56245C60.7592 8.05789 63.4201 9.5446 65.9848 11.1702L65.8014 11.0602C66.4678 11.5623 66.9447 12.311 67.096 13.1795L67.0973 13.1916L67.1235 13.3854C67.1639 13.7691 67.1248 14.1571 67.0085 14.5251C66.8922 14.8931 66.7013 15.2332 66.4477 15.5243C66.0191 16.1915 65.3476 16.6661 64.5752 16.8477L64.557 16.8496C63.7366 17.0374 62.8752 16.8925 62.1618 16.4466L62.1685 16.4521C60.7992 15.7301 59.4829 15.0048 58.2195 14.276C57.0136 13.5724 55.7739 12.9282 54.5049 12.3457L54.2929 12.2572C52.868 11.5666 51.3725 11.0317 49.8326 10.6619L49.6695 10.6297C48.0358 10.2592 46.3522 10.1596 44.6862 10.3349L44.5342 10.3506L44.4551 10.3588C43.1236 10.4966 41.8991 10.9548 40.8516 11.6403L40.8923 11.6177C39.8119 12.3424 38.9439 13.3413 38.3774 14.5117L38.3623 14.544C37.4575 15.9725 36.8594 17.5731 36.6057 19.2444L36.5963 19.3313C36.3377 20.9658 36.1902 22.6158 36.1548 24.2702L36.1573 24.4725C36.1164 28.229 36.4838 31.9787 37.253 35.6558L37.2121 35.439C38.0701 39.5742 39.0468 43.1936 40.2051 46.7268L40.0137 46.0651L40.0194 46.1197C40.0332 46.2471 40.0755 46.3698 40.1431 46.4786C40.2108 46.5874 40.302 46.6797 40.4102 46.7485C40.6373 46.8847 40.8969 46.9396 41.1892 46.9135L41.2378 46.9085C44.1919 46.2795 47.0981 45.682 49.9564 45.1161C52.8146 44.5503 55.6715 44.0111 58.5271 43.4987C59.0838 43.3539 59.6172 43.1313 60.1117 42.8375L60.0764 42.8534C60.5409 42.5203 60.9338 42.0976 61.2321 41.6103L61.2369 41.5975C64.4698 36.4345 67.967 31.4414 71.7147 26.6382L71.6717 26.6979C75.3464 22.0123 79.3959 17.6326 83.7802 13.602L84.0446 13.3659C86.3851 11.1614 88.8481 9.09048 91.4219 7.16299L91.7945 6.90342C94.4468 4.93179 97.335 3.29857 100.392 2.04159L100.67 1.93913C102.584 1.10293 104.596 0.515046 106.659 0.189842L106.72 0.183552C108.9 -0.144244 111.125 -0.0320287 113.261 0.513569L113.142 0.489074C115.678 1.00638 117.892 2.21392 119.629 3.91898L119.65 3.94139C121.328 5.6649 122.712 7.76255 123.655 10.1024L123.699 10.2329C124.766 12.5844 125.525 15.3424 125.826 18.252L125.833 18.3249C126.128 21.1759 126.248 23.9999 126.194 26.797L126.19 26.4658C126.162 27.2218 126.128 27.9437 126.088 28.6313C126.041 29.4834 125.945 30.2178 125.811 30.9438L125.829 30.8131C125.83 31.2164 125.742 31.615 125.572 31.9806C125.402 32.3462 125.153 32.67 124.843 32.9288L124.832 32.9361C124.198 33.4795 123.38 33.7578 122.546 33.7129L122.564 33.711C122.157 33.7151 121.754 33.638 121.377 33.484C121 33.3301 120.658 33.1025 120.37 32.8145L120.363 32.8091C120.057 32.5026 119.819 32.1344 119.666 31.7289C119.513 31.3235 119.447 30.8901 119.475 30.4575L119.477 30.4757C119.45 29.1851 119.475 27.8626 119.552 26.508C119.63 25.3088 119.606 23.9423 119.469 22.5567C119.407 20.9377 119.238 19.3247 118.963 17.7281L118.98 17.8368C118.695 16.1826 118.296 14.55 117.786 12.9505L117.854 13.1891C117.541 11.8962 116.95 10.6871 116.121 9.64579C115.293 8.60445 114.248 7.75589 113.058 7.15911L113.019 7.13858C110.385 6.1254 107.459 6.17493 104.86 7.27669L104.937 7.25029C102.544 8.02414 100.26 9.10235 98.1413 10.4584L98.2973 10.3624C96.2714 11.6485 94.2587 13.0417 92.2591 14.542C88.3861 17.7516 84.7839 21.2742 81.4892 25.0743L81.5274 25.0273C78.253 28.8165 75.1532 32.7493 72.228 36.8257C71.6538 37.5318 71.0851 38.2906 70.5218 39.102C69.9585 39.9134 69.4424 40.6667 68.9736 41.3619L68.9761 41.3862C68.9863 41.4643 68.9659 41.5435 68.919 41.6069C68.8596 41.7349 68.8463 41.8794 68.8815 42.016L70.644 41.8275C79.7514 41.0018 88.6392 40.7269 97.426 40.9596L96.2825 40.9552C105.943 41.2019 114.64 42.1684 123.124 43.8139L121.963 43.6333C126.729 44.4478 130.668 45.391 134.53 46.5508L133.823 46.3661C138.272 47.68 142.075 49.159 145.722 50.9121L145.362 50.7529C147.464 51.8308 149.291 52.9188 151.049 54.1121L150.963 54.0535C152.787 55.2891 154.435 56.6597 155.955 58.1662L156.01 58.2219C158.7 60.823 160.536 64.378 160.955 68.4236L161.005 68.9649L161.002 68.9405C161.097 72.9825 159.657 76.9109 156.972 79.9359L156.961 79.9493C155.124 82.2125 152.99 84.2177 150.616 85.9103L150.466 86.0117C148.12 87.6713 145.646 89.1445 143.069 90.4178L142.687 90.5863C141.96 90.8829 141.15 90.9056 140.408 90.6502L140.427 90.6544C140.038 90.53 139.68 90.3258 139.374 90.0551C139.069 89.7843 138.824 89.4529 138.654 89.0819L138.646 89.0643C138.444 88.7132 138.318 88.3232 138.277 87.92C138.237 87.5168 138.282 87.1095 138.41 86.7251L138.406 86.7439C138.651 85.9037 139.205 85.1866 139.956 84.7356L139.973 84.7276C141.188 83.9553 142.432 83.2065 143.704 82.4813C144.98 81.7582 146.195 80.9344 147.339 80.0178L147.237 80.0959C148.292 79.3053 149.187 78.5189 150.021 77.6713L149.982 77.706C150.813 76.867 151.62 75.9751 152.403 75.0305C153.766 73.416 154.564 71.3319 154.536 69.1061L154.528 69.0211C154.299 66.81 153.31 64.8556 151.844 63.3987L151.858 63.4157C150.651 62.0435 149.268 60.8365 147.745 59.8261L147.705 59.7995C146.202 58.8016 144.628 57.9159 142.994 57.1496L142.814 57.0701C138.899 55.0845 134.793 53.5017 130.558 52.3461L130.092 52.2408C126.026 51.1172 121.902 50.2158 117.738 49.5407L116.773 49.4195C112.059 48.7203 107.34 48.1853 102.615 47.8147C98.028 47.4321 93.4224 47.3223 88.8224 47.4859L88.4247 47.5025C84.6654 47.6745 80.8835 47.8857 77.0791 48.1361C73.2747 48.3865 69.4975 48.6423 65.7474 48.9034L65.6866 48.9097C65.206 48.9623 64.7378 49.0958 64.3018 49.3047L64.331 49.2894C63.9268 49.4859 63.6163 49.8334 63.4663 50.2568L63.4615 50.2696L57.7007 61.1677C55.8125 64.8134 53.977 68.4537 52.1941 72.0886C51.9939 72.3523 51.8848 72.6739 51.8834 73.0048L51.884 73.0109C51.8572 73.3708 51.922 73.7316 52.0724 74.0597L52.0644 74.0421C54.4382 78.2169 56.8874 82.3287 59.4119 86.3774C61.9365 90.4261 64.6373 94.3767 67.5144 98.2293C70.3915 102.082 73.3933 105.813 76.5197 109.423C79.6461 113.033 82.9432 116.49 86.4108 119.794C89.4607 122.665 92.5055 125.248 95.6695 127.677L95.7293 127.72C98.8336 130.107 102.197 132.208 105.753 133.971L106.018 134.091C107.566 134.919 109.32 135.658 111.137 136.232L111.345 136.29C113.042 136.833 114.974 137.093 116.961 136.998L117.004 136.994C118.672 136.966 120.295 136.453 121.675 135.516L121.635 135.544C122.937 134.593 123.938 133.335 124.55 131.891L124.57 131.846C125.236 130.5 125.716 128.964 125.944 127.363L125.957 127.257C126.171 125.683 126.296 124.098 126.333 122.509L126.334 122.288C126.228 116.966 125.445 111.679 124.006 106.554L124.099 106.919C122.719 101.941 121.13 97.0141 119.331 92.1373C117.306 87.1733 115.079 82.3386 112.65 77.6333C110.221 72.928 107.638 68.2879 104.899 63.7129C104.636 63.3721 104.42 62.9981 104.255 62.6007L104.239 62.5655C104.037 62.1977 103.967 61.7715 104.041 61.3582L104.038 61.3339C103.962 60.5928 104.196 59.8931 104.646 59.3678C105.102 58.7925 105.736 58.3855 106.45 58.2111L106.468 58.2092C107.122 58.032 107.816 58.0768 108.441 58.3365L108.422 58.3324C109.111 58.6006 109.679 59.1089 110.021 59.7633L110.029 59.7808C110.951 61.4086 111.931 63.059 112.968 64.7321C114.006 66.4052 114.99 68.1001 115.922 69.817C118.726 75.0237 121.328 80.3577 123.728 85.8191C125.835 90.439 127.883 96.1026 129.51 101.969L129.681 102.664C130.62 106.097 131.517 110.314 132.196 114.621L132.241 114.936C132.894 119.185 132.938 123.505 132.37 127.766L132.399 127.456C132.273 128.333 132.097 129.249 131.873 130.206C131.638 131.198 131.34 132.174 130.983 133.128L131.03 132.988C129.956 136.445 127.767 139.343 124.851 141.265L124.77 141.317C122.929 142.471 120.708 143.272 118.3 143.521C116.954 143.656 115.642 143.624 114.363 143.425L114.469 143.438C111.178 143.104 108.203 142.263 105.459 140.988L105.594 141.047C102.731 139.723 99.9558 138.216 97.2866 136.535L97.4505 136.635C92.6626 133.619 88.1645 130.167 84.0138 126.323L83.912 126.229C79.7337 122.352 75.7537 118.292 71.9719 114.05C67.9042 109.463 64.0863 104.66 60.5347 99.6637L59.9815 98.8307C56.2527 93.5559 52.7459 88.0719 49.4613 82.3787L49.0731 81.7742L48.4303 80.9075ZM42.3185 53.0773L47.6767 65.7842C49.0129 63.0592 50.3336 60.4422 51.6389 57.9332C52.9442 55.4242 54.3233 52.8564 55.7762 50.2298L42.3185 53.0773ZM82.134 82.9151L82.0246 82.9264C79.4711 83.1906 77.0472 82.3916 75.2072 80.8813C74.2876 80.1931 73.5207 79.3219 72.9552 78.3227C72.3896 77.3234 72.0375 76.2178 71.9212 75.0757L71.8812 74.5703L71.8692 74.4548C71.6084 71.9339 72.419 69.5539 73.9286 67.7523C74.6732 66.8049 75.6009 66.0169 76.6566 65.4351C77.7123 64.8534 78.8743 64.4898 80.0734 64.3661L80.2194 64.351L80.3227 64.3403C82.8762 64.076 85.3001 64.8751 87.1401 66.3853C89.0333 67.8164 90.3464 69.9951 90.6098 72.5403L90.6223 72.6618L90.6337 72.7712C90.8964 75.3103 90.0572 77.7117 88.5032 79.4994L88.4977 79.5061C87.7345 80.4604 86.788 81.2526 85.714 81.8361C84.6399 82.4196 83.4599 82.7826 82.2435 82.9037L82.1523 82.9132L82.1583 82.9126L82.134 82.9151Z" fill="url(#paint0_linear_499_14599)" fill-opacity="0.26"/>
<defs>
<linearGradient id="paint0_linear_499_14599" x1="160.48" y1="101.028" x2="140.201" y2="-20.1759" gradientUnits="userSpaceOnUse">
<stop stop-color="white"/>
<stop offset="1" stop-color="#565656"/>
</linearGradient>
</defs>
</svg>
