<svg width="290" height="322" viewBox="0 0 290 322" fill="none" xmlns="http://www.w3.org/2000/svg">
<path d="M182.666 308.517C199.535 294.797 207.194 271.207 201.575 250.256C198.363 237.884 189.816 225.895 179.211 218.708C176.302 216.81 173.893 214.938 173.714 214.529C173.58 214.222 175.137 209.395 177.221 204.094L180.997 194.273L191.377 196.194C202.699 198.312 211.684 198.161 223.595 195.755C233.832 193.715 252.363 184.632 259.88 178.052C282.167 158.548 292.763 129.649 288.006 100.884C286.63 92.7072 285.55 89.4 280.246 78.6744C273.407 64.719 268.707 58.7282 256.97 49.2322C248.693 42.6119 227.342 33.7858 216.172 32.5761C184.074 28.8175 149.874 45.9739 134.696 73.3414L131.367 79.4308L121.15 75.366L110.874 71.4484L111.721 65.8353C115.831 39.1651 101.418 13.77 76.9455 4.23706C66.7731 0.274589 58.457 -0.842318 48.4514 0.608776C28.5429 3.46606 11.7004 16.6867 4.14365 35.4769C-7.55468 64.3698 6.37447 97.0478 35.1227 108.246C50.6026 114.276 62.8512 114.038 78.3523 107.257C90.2604 102.047 97.2379 96.1904 103.675 86.3028L106.63 81.596L116.405 85.4885C121.86 87.6133 126.462 89.7455 126.641 90.1548C126.865 90.6665 126.297 93.8412 125.408 97.4002C123.372 105.606 122.914 119.096 124.371 128.578C126.032 139.922 134.027 157.639 141.481 166.571C147.943 174.351 157.687 182.646 165.627 187.098L170.837 190.061L166.785 200.368L162.676 210.823L156.771 209.627C144.019 207.037 125.943 211.287 114.377 219.516C100.996 228.906 91.812 246.214 91.0228 263.141C90.5615 273.828 94.1888 286.872 100.174 296.08C110.673 311.97 130.162 321.854 149.555 321.173C158.142 320.953 175.849 314.182 182.666 308.517ZM149.222 310.346C136.402 310.956 123.133 305.787 114.089 296.576C108.286 290.58 102.932 278.901 101.846 269.989C100.219 257.045 105.681 241.853 115.196 232.57C121.378 226.573 136.424 219.869 144.113 219.553C157.831 219.039 170.715 223.888 179.522 232.837C186.85 240.36 192.714 253.766 192.716 263.276C192.866 277.597 187.633 289.397 177.136 299.231C170.543 305.408 159.322 309.951 149.222 310.346ZM221.998 185.115C200.421 189.19 183.93 186.162 166.565 174.983C153.172 166.455 145.181 156.296 138.973 139.869C132.662 123.488 132.312 110.108 137.732 92.862C143.28 75.0723 154.942 61.192 172.851 51.5282C191.8 41.1657 211.175 39.8833 231.43 47.6035C241.263 51.3488 255.169 59.6521 256.378 62.4153C256.602 62.9269 257.55 63.9754 258.613 64.7293C261.554 66.9785 270.33 80.3302 273.285 87.0845C275.837 92.9177 278.388 105.457 278.737 114.083C279.081 121.858 276.219 134.327 272.161 143.783C267.204 155.096 259.472 164.819 249.767 171.99C246.225 174.516 242.406 177.528 241.147 178.566C238.516 180.936 231.824 183.254 221.998 185.115ZM56.3758 101.753C36.1823 101.443 20.9964 90.7729 13.7142 71.8906C7.49333 55.7139 10.3519 40.4421 22.0846 26.165C26.7403 20.5924 38.1822 13.758 46.4055 11.8673C59.3565 8.76192 75.1913 12.8076 86.0439 21.9591C92.0468 27.0141 92.6551 27.8453 97.356 38.5908C102.012 49.2339 102.21 50.2447 101.682 57.4253C100.64 71.5368 94.9058 83.3114 84.8857 91.7185C78.1267 97.2358 65.097 101.839 56.3758 101.753Z" fill="url(#paint0_linear_499_12956)" fill-opacity="0.26"/>
<defs>
<linearGradient id="paint0_linear_499_12956" x1="11.8105" y1="43.7824" x2="214.814" y2="80.4727" gradientUnits="userSpaceOnUse">
<stop stop-color="white"/>
<stop offset="1" stop-color="#262626"/>
</linearGradient>
</defs>
</svg>
