<svg width="188" height="158" viewBox="0 0 188 158" fill="none" xmlns="http://www.w3.org/2000/svg">
<path d="M4.36265 81.0675C10.5986 91.6566 23.1306 97.9362 35.314 96.573C42.4997 95.8277 49.9236 92.0683 54.8388 86.752C56.1456 85.2873 57.396 84.1 57.64 84.0346C57.8229 83.9856 60.3879 85.2651 63.1732 86.879L68.3406 89.8215L66.3872 95.4587C64.2435 101.606 63.566 106.639 63.9009 113.499C64.1728 119.392 67.6765 130.516 70.7161 135.275C79.7249 149.382 94.974 157.753 111.451 157.534C116.136 157.459 118.076 157.136 124.519 155.081C132.897 152.443 136.643 150.325 142.944 144.572C147.345 140.508 154.087 129.326 155.71 123.187C160.532 105.57 153.845 85.0055 139.84 74.2036L136.72 71.8271L139.857 66.4627L142.918 61.0534L145.982 62.0023C160.537 66.56 175.949 60.6602 183.351 47.7936C186.427 42.4455 187.756 37.8934 187.794 32.1795C187.885 20.8129 181.926 10.2808 172.067 4.46499C156.915 -4.52158 137.474 0.490861 128.779 15.6051C124.097 23.7436 123.192 30.608 125.666 39.8446C127.568 46.9403 130.249 51.3357 135.228 55.771L137.607 57.8214L134.603 62.9533C132.954 65.8212 131.372 68.2118 131.128 68.2772C130.823 68.3589 129.098 67.7723 127.184 66.9737C122.771 65.1403 115.272 63.7405 109.851 63.7509C103.371 63.7169 92.7933 66.6823 87.1707 70.0902C82.2752 73.041 76.8138 77.7824 73.6533 81.8418L71.5556 84.5018L66.1397 81.3637L60.6465 78.1808L61.8157 74.9828C64.3442 68.0769 63.502 57.6161 59.8841 50.4559C55.7719 42.1824 46.8796 35.5832 37.4882 33.707C31.5556 32.543 23.9594 33.4639 18.3066 36.0275C8.53734 40.5465 1.36184 50.5988 0.0979859 61.4928C-0.50671 66.3097 1.77544 76.7781 4.36265 81.0675ZM6.17621 62.2244C6.92261 55.0093 10.9356 48.0335 16.8494 43.7609C20.6919 41.0267 27.6717 39.0253 32.7441 39.1741C40.1148 39.3627 48.1403 43.7028 52.5207 49.8064C55.3473 53.7695 57.8176 62.7451 57.3421 67.0684C56.4666 74.777 52.6646 81.5652 46.9174 85.7276C42.0921 89.1841 34.1038 91.3245 28.7901 90.5192C20.775 89.3888 14.6254 85.4639 10.02 78.7649C7.12789 74.5572 5.54068 67.9018 6.17621 62.2244ZM69.9818 113.508C69.5343 101.106 72.6242 92.1484 80.3432 83.3929C86.244 76.6324 92.5984 73.0285 102.303 70.9525C111.992 68.8154 119.498 69.7544 128.675 74.245C138.145 78.8537 144.912 86.5468 148.794 97.3735C152.977 108.84 152.051 119.775 146.02 130.439C143.093 135.615 137.274 142.682 135.628 143.123C135.323 143.204 134.657 143.645 134.145 144.176C132.639 145.628 124.434 149.4 120.41 150.479C116.934 151.41 109.711 151.772 104.861 151.236C100.488 150.768 93.7632 148.112 88.8233 145.043C82.9223 141.314 78.145 136.169 74.9606 130.138C73.8499 127.944 72.4907 125.555 72.0173 124.764C70.9158 123.092 70.1881 119.157 69.9818 113.508ZM130.605 28.0314C132.491 16.7741 139.74 9.19328 150.909 6.7252C160.476 4.62078 168.767 7.51298 175.749 15.2795C178.469 18.3535 181.317 25.3264 181.676 30.0817C182.314 37.5817 178.71 46.0867 172.676 51.3749C169.343 54.3006 168.827 54.57 162.424 56.2856C156.082 57.9849 155.5 58.0096 151.533 57.1059C143.736 55.3269 137.643 51.1246 133.795 44.8128C131.285 40.5682 129.818 32.8973 130.605 28.0314Z" fill="url(#paint0_linear_499_14731)" fill-opacity="0.26"/>
<defs>
<linearGradient id="paint0_linear_499_14731" x1="166.776" y1="8.04478" x2="129.062" y2="118.367" gradientUnits="userSpaceOnUse">
<stop stop-color="white"/>
<stop offset="1" stop-color="#262626"/>
</linearGradient>
</defs>
</svg>
