<svg width="264" height="339" viewBox="0 0 264 339" fill="none" xmlns="http://www.w3.org/2000/svg">
<path d="M66.1941 338.046C87.6021 334.241 105.75 317.336 111.009 296.291C114.208 283.916 112.556 269.285 106.773 257.853C105.151 254.782 103.954 251.976 103.996 251.531C104.028 251.197 107.733 247.733 112.128 244.111L120.197 237.358L128.339 244.077C137.209 251.425 145.137 255.655 156.719 259.333C166.659 262.52 187.269 263.576 197.035 261.472C225.989 255.24 249.281 235.12 259.087 207.662C261.854 199.846 262.516 196.43 263.086 184.478C263.882 168.958 262.681 161.438 257.03 147.438C253.007 137.632 238.626 119.551 229.448 113.071C203.211 94.202 164.983 92.598 138.427 109.155L132.56 112.863L125.601 104.349L118.52 95.9358L121.985 91.4395C138.525 70.118 138.254 40.9196 121.487 20.7045C114.517 12.3019 107.789 7.28823 98.3369 3.69943C79.5447 -3.46761 58.4019 -0.085994 42.6733 12.6728C18.4193 32.2534 14.7327 67.5844 34.4295 91.331C45.0354 104.118 55.8593 109.856 72.7033 111.453C85.6432 112.679 94.5865 110.946 105.014 105.427L109.883 102.747L116.539 110.895C120.276 115.401 123.265 119.499 123.222 119.944C123.17 120.5 121.132 123 118.627 125.68C112.863 131.865 105.913 143.437 102.584 152.434C98.5291 163.158 96.918 182.528 99.0989 193.955C100.971 203.894 105.462 215.877 110.243 223.623L113.36 228.744L104.813 235.788L96.1447 242.932L91.5632 239.02C81.6722 230.565 63.8058 225.505 49.6995 227.085C33.4421 228.798 17.0108 239.471 8.10337 253.886C2.51173 263.005 -0.649543 276.17 0.112785 287.126C1.57685 306.115 13.8174 324.218 31.1024 333.037C38.7167 337.013 57.4844 339.689 66.1941 338.046ZM36.0669 323.409C24.5632 317.719 15.4723 306.759 12.0372 294.315C9.87476 286.256 10.8639 273.446 14.2412 265.127C19.1029 253.021 31.2532 242.391 44.078 238.895C52.3942 236.653 68.8026 238.097 75.6783 241.553C87.9207 247.763 96.8306 258.257 100.186 270.356C102.939 280.491 101.558 295.059 96.9436 303.373C90.1222 315.966 79.8183 323.742 65.8674 327.244C57.105 329.443 45.0892 327.967 36.0669 323.409ZM160.488 249.256C139.646 242.343 126.699 231.691 116.944 213.487C109.376 199.53 107.321 186.768 109.869 169.394C112.304 152.009 118.494 140.141 131.604 127.695C145.092 114.836 162.025 108.363 182.374 108.608C203.971 108.748 221.532 117.033 235.492 133.616C242.27 141.663 250.396 155.674 250.112 158.676C250.059 159.232 250.379 160.609 250.943 161.784C252.422 165.179 253.613 181.112 252.917 188.451C252.316 194.79 248.458 206.991 244.576 214.702C241.102 221.666 232.547 231.177 224.409 237.475C214.583 244.958 203.103 249.705 191.137 251.263C186.814 251.751 182.013 252.53 180.409 252.827C176.957 253.622 169.982 252.4 160.488 249.256ZM56.1624 95.9717C38.6587 85.8973 30.5622 69.1971 33.3626 49.1538C35.7773 31.9913 45.6904 20.0276 62.8788 13.2417C69.6544 10.6301 82.9755 10.2097 91.0826 12.549C103.913 16.1214 115.792 27.3457 120.837 40.6151C123.631 47.9487 123.76 48.9707 122.653 60.6471C121.556 72.2122 121.239 73.1919 117.291 79.2133C109.529 91.0443 98.8 98.5547 85.9586 101.04C77.3709 102.582 63.7452 100.281 56.1624 95.9717Z" fill="url(#paint0_linear_499_13187)" fill-opacity="0.26"/>
<defs>
<linearGradient id="paint0_linear_499_13187" x1="45.344" y1="23.6559" x2="205.008" y2="154.285" gradientUnits="userSpaceOnUse">
<stop stop-color="white"/>
<stop offset="1" stop-color="#262626"/>
</linearGradient>
</defs>
</svg>
