<svg width="106" height="106" viewBox="0 0 106 106" fill="none" xmlns="http://www.w3.org/2000/svg">
<path d="M97.1663 97.1667H8.83301" stroke="black" stroke-width="3" stroke-linecap="round"/>
<path d="M92.75 97.1667V64.0417C92.75 60.3829 89.7839 57.4167 86.125 57.4167H72.875C69.2161 57.4167 66.25 60.3829 66.25 64.0417V97.1667" stroke="black" stroke-width="3"/>
<path d="M66.25 97.1666V22.0833C66.25 15.8371 66.25 12.7141 64.3096 10.7737C62.3692 8.83325 59.2461 8.83325 53 8.83325C46.7539 8.83325 43.6308 8.83325 41.6904 10.7737C39.75 12.7141 39.75 15.8371 39.75 22.0833V97.1666" stroke="black" stroke-width="3"/>
<path d="M39.75 97.1666V41.9583C39.75 38.2994 36.7839 35.3333 33.125 35.3333H19.875C16.2161 35.3333 13.25 38.2994 13.25 41.9583V97.1666" stroke="black" stroke-width="3"/>
</svg>
