<svg width="260" height="116" viewBox="0 0 260 116" fill="none" xmlns="http://www.w3.org/2000/svg">
<path d="M116.07 -208.984C97.3339 -197.95 86.223 -175.776 88.6351 -154.219C89.9538 -141.505 96.6055 -128.369 106.012 -119.672C108.604 -117.36 110.705 -115.148 110.82 -114.716C110.907 -114.392 108.643 -109.854 105.787 -104.926L100.581 -95.7825L90.6066 -99.2389C79.7301 -103.032 70.8247 -104.231 58.6871 -103.638C48.2598 -103.157 28.5763 -96.9577 20.1572 -91.5794C-4.80447 -75.6395 -19.6154 -48.6581 -19.2278 -19.5044C-19.0944 -11.2139 -18.5229 -7.7821 -14.8883 3.61775C-10.2203 18.4413 -6.4723 25.0694 3.70737 36.2188C10.8981 44.0061 30.683 55.9355 41.5447 58.8072C72.7155 67.3388 109.102 55.5075 128.215 30.727L132.42 25.2059L141.912 30.7576L151.483 36.1723L149.803 41.5949C141.739 67.3467 152.178 94.6167 174.944 107.713C184.407 113.157 192.461 115.509 202.571 115.575C222.683 115.737 241.318 105.193 251.609 87.7492C267.509 60.9384 258.64 26.5405 231.898 11.1559C217.498 2.87192 205.352 1.26936 189.009 5.64847C176.454 9.01255 168.677 13.7562 160.829 22.5662L157.201 26.7764L148.121 21.4614C143.047 18.5423 138.817 15.7438 138.701 15.3122C138.556 14.7728 139.594 11.7192 141.007 8.33393C144.251 0.526144 146.728 -12.7426 146.71 -22.3359C146.77 -33.8006 141.523 -52.5165 135.493 -62.4651C130.272 -71.127 121.883 -80.7903 114.7 -86.3825L109.993 -90.094L115.546 -99.6767L121.178 -109.396L126.836 -107.328C139.055 -102.854 157.564 -104.344 170.234 -110.745C184.872 -118.021 196.549 -133.755 199.869 -150.372C201.928 -160.869 200.299 -174.31 195.763 -184.312C187.767 -201.597 169.981 -214.293 150.705 -216.529C142.182 -217.599 123.66 -213.561 116.07 -208.984ZM149.411 -205.775C162.177 -204.454 174.52 -197.354 182.08 -186.89C186.917 -180.091 190.458 -167.741 190.195 -158.766C189.862 -145.725 182.182 -131.525 171.383 -123.774C164.371 -118.773 148.489 -114.402 140.84 -115.243C127.2 -116.792 115.19 -123.519 107.825 -133.688C101.709 -142.226 97.9215 -156.36 99.3464 -165.762C101.347 -179.944 108.291 -190.825 120.144 -198.974C127.589 -204.091 139.365 -206.899 149.411 -205.775ZM58.67 -92.8788C80.6144 -93.6705 96.4637 -88.2033 111.956 -74.5454C123.917 -64.1048 130.294 -52.8614 133.967 -35.6898C137.749 -18.5471 136.087 -5.26563 128.142 10.9717C119.987 27.7277 106.375 39.7013 87.2187 46.5689C66.9296 53.9713 47.582 52.3325 28.7141 41.6608C19.5545 36.4827 7.0515 26.187 6.27092 23.2739C6.12636 22.7344 5.3465 21.5556 4.40801 20.6507C1.83788 17.9857 -4.83609 3.46838 -6.74419 -3.65274C-8.3921 -9.80281 -9.03251 -22.5832 -8.08358 -31.1637C-7.25696 -38.9019 -2.55695 -50.8004 2.87323 -59.5409C9.47174 -69.9822 18.5751 -78.4348 29.2457 -84.0694C33.1272 -86.0346 37.3549 -88.4395 38.7545 -89.2771C41.7124 -91.2261 48.6756 -92.5136 58.67 -92.8788ZM209.911 14.3875C229.829 17.7235 243.243 30.5507 247.61 50.3119C251.333 67.2387 246.216 81.9088 232.474 94.2641C227.035 99.0751 214.697 104.116 206.283 104.751C193.013 105.878 177.964 99.5029 168.607 88.8268C163.431 82.9284 162.954 82.0153 159.919 70.6862C156.912 59.4651 156.868 58.436 158.467 51.4159C161.615 37.6205 169.05 26.8394 180.218 20.0307C187.729 15.5899 201.301 12.9938 209.911 14.3875Z" fill="url(#paint0_linear_499_12434)" fill-opacity="0.26"/>
<defs>
<linearGradient id="paint0_linear_499_12434" x1="245.275" y1="78.3875" x2="50.0736" y2="11.6566" gradientUnits="userSpaceOnUse">
<stop stop-color="white"/>
<stop offset="1" stop-color="#262626"/>
</linearGradient>
</defs>
</svg>
