<svg width="133" height="127" viewBox="0 0 133 127" fill="none" xmlns="http://www.w3.org/2000/svg">
<path d="M58.583 64.3333C58.583 53.2552 58.583 47.7162 62.0245 44.2747C65.466 40.8333 71.005 40.8333 82.083 40.8333H89.9163C100.994 40.8333 106.533 40.8333 109.975 44.2747C113.416 47.7162 113.416 53.2552 113.416 64.3333V95.6666C113.416 106.745 113.416 112.284 109.975 115.725C106.533 119.167 100.994 119.167 89.9163 119.167H82.083C71.005 119.167 65.466 119.167 62.0245 115.725C58.583 112.284 58.583 106.745 58.583 95.6666V64.3333Z" stroke="black" stroke-width="3"/>
<path d="M58.583 48.9651C54.7639 49.3407 52.1932 50.1897 50.2745 52.1084C46.833 55.5499 46.833 61.0889 46.833 72.167V87.8336C46.833 98.9116 46.833 104.451 50.2745 107.892C52.1932 109.811 54.7639 110.66 58.583 111.035" stroke="black" stroke-width="3"/>
<path d="M113.417 48.9651C117.236 49.3407 119.807 50.1897 121.725 52.1084C125.167 55.5499 125.167 61.0889 125.167 72.167V87.8336C125.167 98.9116 125.167 104.451 121.725 107.892C119.807 109.811 117.236 110.66 113.417 111.035" stroke="black" stroke-width="3"/>
<path d="M74.25 83.9167H97.75" stroke="black" stroke-width="3" stroke-linecap="round"/>
<path d="M74.25 68.25H97.75" stroke="black" stroke-width="3" stroke-linecap="round"/>
<path d="M74.25 99.5833H86" stroke="black" stroke-width="3" stroke-linecap="round"/>
<path d="M12 52.5V43L18.5 42.5V26L23.5 20L30.5 15.5L41 12H51L62.5 15.5L70.5 21L77 29L80.5 37L82 46.5L81 57L76.5 67L70 74L58.5 80.5L45.5 82.5L32.5 79.5L23 73L15.5 63L12 52.5Z" fill="white"/>
<path d="M47 31.3333V46.9999L56.7917 56.7916" stroke="black" stroke-width="3" stroke-linecap="round" stroke-linejoin="round"/>
<path d="M21.9496 21.9498L20.8889 20.8891V20.8891L21.9496 21.9498ZM16.9896 26.9098L15.4896 26.9173C15.4937 27.7399 16.1595 28.4056 16.982 28.4098L16.9896 26.9098ZM26.9521 28.4599C27.7805 28.464 28.4555 27.7958 28.4596 26.9674C28.4638 26.139 27.7956 25.4641 26.9672 25.4599L26.9596 26.9599L26.9521 28.4599ZM18.4394 16.9322C18.4353 16.1038 17.7603 15.4356 16.9319 15.4397C16.1035 15.4439 15.4353 16.1188 15.4395 16.9472L16.9395 16.9397L18.4394 16.9322ZM13.5634 42.046C13.6759 41.2252 13.1017 40.4687 12.281 40.3562C11.4602 40.2437 10.7037 40.8178 10.5912 41.6386L12.0773 41.8423L13.5634 42.046ZM71.7999 22.2003L72.8606 21.1396C58.4499 6.72895 35.1813 6.59669 20.8889 20.8891L21.9496 21.9498L23.0102 23.0105C36.111 9.90963 57.48 10.0017 70.7393 23.261L71.7999 22.2003ZM22.2001 71.8002L21.1394 72.8609C35.5501 87.2715 58.8187 87.4038 73.1111 73.1114L72.0504 72.0507L70.9898 70.99C57.889 84.0909 36.52 83.9988 23.2607 70.7395L22.2001 71.8002ZM72.0504 72.0507L73.1111 73.1114C87.4035 58.8189 87.2713 35.5503 72.8606 21.1396L71.7999 22.2003L70.7393 23.261C83.9986 36.5202 84.0906 57.8892 70.9898 70.99L72.0504 72.0507ZM21.9496 21.9498L20.8889 20.8891L15.9289 25.8491L16.9896 26.9098L18.0502 27.9704L23.0102 23.0105L21.9496 21.9498ZM16.9896 26.9098L16.982 28.4098L26.9521 28.4599L26.9596 26.9599L26.9672 25.4599L16.9971 25.4098L16.9896 26.9098ZM16.9896 26.9098L18.4895 26.9022L18.4394 16.9322L16.9395 16.9397L15.4395 16.9472L15.4896 26.9173L16.9896 26.9098ZM12.0773 41.8423L10.5912 41.6386C9.07777 52.6796 12.6016 64.3231 21.1394 72.8609L22.2001 71.8002L23.2607 70.7395C15.4095 62.8883 12.1729 52.1902 13.5634 42.046L12.0773 41.8423Z" fill="black"/>
</svg>
