<svg width="106" height="106" viewBox="0 0 106 106" fill="none" xmlns="http://www.w3.org/2000/svg">
<path d="M47.9703 14.8547C50.208 10.8404 51.3269 8.83325 52.9997 8.83325C54.6725 8.83325 55.7913 10.8404 58.0291 14.8547L58.608 15.8933C59.2439 17.034 59.5619 17.6044 60.0576 17.9807C60.5534 18.357 61.1708 18.4967 62.4056 18.7761L63.5298 19.0305C67.8753 20.0137 70.048 20.5053 70.5649 22.1676C71.0818 23.8299 69.6006 25.5619 66.6382 29.0261L65.8718 29.9223C65.0299 30.9068 64.609 31.399 64.4197 32.0079C64.2303 32.6168 64.2939 33.2735 64.4212 34.5869L64.5371 35.7827C64.985 40.4046 65.2089 42.7156 63.8556 43.743C62.5023 44.7703 60.4679 43.8337 56.3993 41.9603L55.3467 41.4757C54.1905 40.9433 53.6124 40.6772 52.9997 40.6772C52.3869 40.6772 51.8088 40.9433 50.6526 41.4757L49.6 41.9603C45.5314 43.8336 43.4971 44.7703 42.1438 43.743C40.7905 42.7156 41.0144 40.4046 41.4623 35.7827L41.5781 34.5869C41.7054 33.2735 41.7691 32.6168 41.5797 32.0079C41.3903 31.399 40.9694 30.9068 40.1276 29.9223L39.3612 29.0261C36.3987 25.5619 34.9175 23.8299 35.4345 22.1676C35.9514 20.5053 38.1241 20.0137 42.4695 19.0305L43.5937 18.7761C44.8286 18.4967 45.446 18.357 45.9417 17.9807C46.4375 17.6044 46.7554 17.034 47.3913 15.8933L47.9703 14.8547Z" stroke="black" stroke-width="3"/>
<path d="M85.8186 33.9275C86.9375 31.9203 87.4969 30.9167 88.3333 30.9167C89.1697 30.9167 89.7292 31.9203 90.848 33.9275L91.1375 34.4468C91.4555 35.0171 91.6144 35.3023 91.8623 35.4905C92.1102 35.6786 92.4189 35.7485 93.0363 35.8882L93.5984 36.0154C95.7711 36.507 96.8575 36.7528 97.1159 37.5839C97.3744 38.415 96.6338 39.2811 95.1526 41.0132L94.7694 41.4613C94.3485 41.9535 94.138 42.1996 94.0433 42.5041C93.9486 42.8085 93.9805 43.1369 94.0441 43.7936L94.102 44.3915C94.326 46.7024 94.4379 47.8579 93.7613 48.3716C93.0846 48.8853 92.0675 48.4169 90.0332 47.4803L89.5069 47.238C88.9288 46.9718 88.6397 46.8387 88.3333 46.8387C88.0269 46.8387 87.7379 46.9718 87.1598 47.238L86.6335 47.4803C84.5992 48.4169 83.582 48.8853 82.9054 48.3716C82.2287 47.8579 82.3407 46.7024 82.5646 44.3915L82.6226 43.7936C82.6862 43.1369 82.718 42.8085 82.6233 42.5041C82.5287 42.1996 82.3182 41.9535 81.8973 41.4613L81.5141 41.0132C80.0329 39.2811 79.2923 38.415 79.5507 37.5839C79.8092 36.7528 80.8955 36.507 83.0683 36.0154L83.6304 35.8882C84.2478 35.7485 84.5565 35.6786 84.8044 35.4905C85.0522 35.3023 85.2112 35.0171 85.5292 34.4468L85.8186 33.9275Z" stroke="black" stroke-width="3"/>
<path d="M15.1516 33.9275C16.2705 31.9203 16.8299 30.9167 17.6663 30.9167C18.5027 30.9167 19.0622 31.9203 20.181 33.9275L20.4705 34.4468C20.7885 35.0171 20.9474 35.3023 21.1953 35.4905C21.4432 35.6786 21.7519 35.7485 22.3693 35.8882L22.9314 36.0154C25.1041 36.507 26.1905 36.7528 26.449 37.5839C26.7074 38.415 25.9668 39.2811 24.4856 41.0132L24.1024 41.4613C23.6815 41.9535 23.471 42.1996 23.3763 42.5041C23.2817 42.8085 23.3135 43.1369 23.3771 43.7936L23.435 44.3915C23.659 46.7024 23.771 47.8579 23.0943 48.3716C22.4176 48.8853 21.4005 48.4169 19.3662 47.4803L18.8399 47.238C18.2618 46.9718 17.9727 46.8387 17.6663 46.8387C17.36 46.8387 17.0709 46.9718 16.4928 47.238L15.9665 47.4803C13.9322 48.4169 12.915 48.8853 12.2384 48.3716C11.5617 47.8579 11.6737 46.7024 11.8976 44.3915L11.9556 43.7936C12.0192 43.1369 12.051 42.8085 11.9564 42.5041C11.8617 42.1996 11.6512 41.9535 11.2303 41.4613L10.8471 41.0132C9.36588 39.2811 8.62527 38.415 8.88373 37.5839C9.14219 36.7528 10.2285 36.507 12.4013 36.0154L12.9634 35.8882C13.5808 35.7485 13.8895 35.6786 14.1374 35.4905C14.3852 35.3023 14.5442 35.0171 14.8622 34.4468L15.1516 33.9275Z" stroke="black" stroke-width="3"/>
<path d="M22.083 90.0486H32.0644C36.529 90.0486 41.0417 90.5138 45.3868 91.4089C53.0728 92.9924 61.1654 93.1843 68.9304 91.9273C72.759 91.3076 76.523 90.36 79.9302 88.7154C83.006 87.2308 86.7737 85.1383 89.3044 82.7944C91.8315 80.4538 94.4633 76.6233 96.3313 73.629C97.9331 71.0615 97.1583 67.9114 94.6247 65.9983C91.8103 63.8733 87.6339 63.8737 84.8201 65.9993L76.8383 72.0288C73.7449 74.3656 70.3659 76.5166 66.3406 77.1587C65.8566 77.2359 65.3494 77.3062 64.8203 77.3675M64.8203 77.3675C64.661 77.386 64.4997 77.4036 64.3364 77.4204M64.8203 77.3675C65.4642 77.2295 66.1036 76.8324 66.7035 76.3089C69.5443 73.8294 69.724 69.6507 67.2591 66.8821C66.6872 66.2397 66.018 65.704 65.2739 65.2601C52.919 57.8911 33.6963 63.5036 22.083 71.7395M64.8203 77.3675C64.6591 77.4021 64.4976 77.4204 64.3364 77.4204M64.3364 77.4204C62.0249 77.6577 59.3206 77.7191 56.32 77.4357" stroke="black" stroke-width="3" stroke-linecap="round"/>
<rect x="8.83301" y="61.8333" width="13.25" height="35.3333" rx="1.5" stroke="black" stroke-width="3"/>
</svg>
